<?xml version="1.0" encoding="UTF-8"?><svg id="Layer_2" xmlns="http://www.w3.org/2000/svg" viewBox="0 0 557.34 145.43"><defs><style>.cls-1{fill:#8b8b8b;}.cls-2{fill:#090808;}.cls-3{fill:#6a6a68;}.cls-4{fill:#0e0d0c;}.cls-5{fill:#2a2621;}.cls-6{fill:#2f2e2c;}.cls-7{fill:#1b1818;}.cls-8{fill:#a4a4a4;}.cls-9{fill:#5f605f;}.cls-10{fill:#040303;}.cls-11{fill:#4e4c49;}.cls-12{fill:#302b26;}.cls-13{fill:#505050;}.cls-14{fill:#414141;}.cls-15{fill:#151414;}.cls-16{fill:#282625;}.cls-17{fill:#fbfbfb;}.cls-18{fill:#7a7a79;}.cls-19{fill:#1d1d1d;}.cls-20{fill:#443f3a;}.cls-21{fill:#3c3b38;}.cls-22{fill:#333230;}.cls-23{fill:#454543;}.cls-24{fill:#262320;}.cls-25{fill:#565555;}.cls-26{fill:#979796;}.cls-27{fill:#666665;}.cls-28{fill:#5c5b59;}.cls-29{fill:#fefefe;}</style></defs><g id="Layer_2-2"><path class="cls-2" d="m534.8,100.43c-5.17-1.9-9.81-3.67-14.5-5.3-8.92-3.11-17.87-6.13-26.81-9.19,1.64-.91,3.28-1.82,5.13-2.85-1.08-.35-2.1-.68-3.12-1.01-1.01,0-2.03,0-3.04,0-.33,0-.66,0-.99,0-.38-.68-.59-1.75-1.15-1.98-5.23-2.1-10.52-4.05-15.8-6.05-1.34-2.33-2.69-4.65-4.03-6.98,1.12-1.49,2.25-2.98,4.22-5.59-2.1,0-4.48-.61-4.98.1-3.59,5.11-5.77,3.53-7.66-1.19-.83-2.07-1.53-4.23-2.69-6.1-.81-1.3-2.24-2.95-3.53-3.09-8.77-.92-17.58-1.47-26.37-2.14-2.33-1.71-4.79-3.27-6.95-5.17-1.55-1.36-2.71-3.17-4.05-4.77,15.67.02,31.34.04,47.01.05.33.88.71,2.53,1,2.52,6.25-.35,6.04,3.66,6.13,8.13.09,4.43,5.93,8.21,9.62,6.77,4.22-1.65,12.4,3.52,11.84,7.9-.4,3.09,1.21,2.79,3.03,3.76,2.32,1.23,4.56,3.4,5.76,5.72,1.15,2.21.93,5.13,1.34,7.97,8.39-2.01,16.7,1.22,23.19-4.81,1.46,1.11,2.67,2.04,4.2,3.21.4-1.04.85-1.63.81-2.18-.62-8.33-8.72-15.9-17.12-16.09-7.41-.16-8.59-2.03-4.49-8.83-5.83-3.25-11.56-6.68-17.55-9.58-1.09-.53-3.28.94-4.85,1.72-1.32.65-2.46,1.65-3.69,2.49-.98-1.75-2.19-3.43-2.83-5.29-.32-.93.37-2.22.61-3.35,2.99-.15,5.97-.31,8.96-.46,2.68.19,5.36.38,8.04.58.94,1.51,1.67,3.22,2.87,4.48,1.08,1.14,2.65,1.85,4.06,2.63,6.38,3.52,12.43,8.12,20.25,7.55,4.96-.36,8.42.99,9.48,6.53-1.11,1.41-2.39,3.03-3.61,4.58,5.44,6.55,6.73,7.1,15.9,6.97-1.05,8.09-2.11,16.18-3.26,25h6.22c1.2,6.4-1.23,6.55-8.42,5.74-1.85-.21-3.6-1.26-5.15-1.83m-25.16-11.66c.24-.7.47-1.4.71-2.1-3.91-1.18-7.82-2.35-11.72-3.53-.16.47-.32.95-.48,1.42,3.83,1.4,7.66,2.8,11.5,4.2Z"/><path class="cls-3" d="m298.5,80.07l-.92-2.02c1.61,0,3.22.01,4.84.02,1.3-2.36,3.74-4.78,3.61-7.05-.18-3.03,2.23-7.92-3.57-8.95-.02-.32-.03-.65-.03-.97.28-.57.6-1.12.83-1.7.69-1.75,1.91-3.56,1.76-5.24-.07-.81-2.69-1.69-4.26-2-1.74-.34-3.59-.05-5.4-.03-1.01-.11-2.01-.23-4.18-.47,2.58-.99,4.04-1.55,5.83-2.23-2.05-.51-3.78-.94-5.5-1.36-.39-2.01-.77-4.03-1.16-6.04.73.04,1.45.08,2.18.11,1.3.97,2.6,1.94,3.91,2.92,2.49,4.48,6.33,5.66,11.25,5.11,3.57-.4,7.22-.12,10.84-.15h8.18c.71,2.81,1.26,4.97,1.99,7.89,1.64-3.45-1.42-8.43,4.67-7.93.38.02.77.04,1.15.07.33.34.66.69.99,1.03-3.07,3.34-3.27,5.91,1.85,7.16.4.1.7.63,1.05.96-5.28-.05-10.57-.19-15.85-.05-.95.03-1.87,1.25-2.81,1.92.97.68,1.87,1.8,2.92,1.94,1.92.27,3.93-.04,5.9-.11-.38,7.06-.75,14.13-1.13,21.19-6.33-1.58-12.62-3.37-19.01-4.62-1.81-.35-3.93.89-5.91,1.4-1.33-.27-2.66-.54-4-.81Zm21.43-15.28h-.86v14.64h.86v-14.64Z"/><path class="cls-4" d="m458.63,31.48c8.23.02,16.47.03,24.7.05,1.38.17,2.77.34,4.15.51,16.36-.02,32.71-.04,49.07-.06,1.65.11,3.29.21,4.94.32.33.59.67,1.18,1,1.77-.34.59-.69,1.18-1.03,1.77-2.14.08-4.28.22-6.42.23-14.53.07-29.07.12-43.6.18-1.82-.08-3.64-.21-5.45-.23-24.85-.3-49.71-.58-74.56-.86.02-.96.04-1.93.06-2.89,15.3-.09,30.61-.18,45.91-.27.41-.17.82-.34,1.23-.52Z"/><path class="cls-23" d="m401.48,121.92c-2.35.66-4.7,1.31-7.05,1.97-1.66-3.61-3.31-7.23-4.97-10.84.46.02.92.05,1.38.07.09-.64.18-1.28.27-1.91-.66-1.31-1.23-2.67-1.99-3.91-3.93-6.38-7.92-12.74-11.88-19.1,1.74-.71,3.48-1.41,5.21-2.12,1.74,2.75,3.48,5.5,5.22,8.26,2.7,1.4,5.8,2.9,7.38,5.37,2.76,4.32,5.99,5.13,10.39,3.38,2.01,3,4.02,5.99,6.03,8.99.17,1.18.35,2.35.54,3.66-7.32-1.31-10.39.59-10.53,6.19Z"/><path class="cls-5" d="m169.4,26.19c1.73-.38,3.46-1.08,5.19-1.08,15.94-.04,31.88.04,47.82.08.33,2.63.67,5.25,1,7.88-3.6-.02-7.19-.03-10.79-.05-.4-.99-.8-1.97-1.2-2.96-1.32.34-2.64.69-3.96,1.03-.05.3-.08.6-.09.9-.32.06-.64.1-.97.11-1.81-1.55-10.98-1.95-12.9-.54-.1.07-.07.32-.1.48-.64-.03-1.27-.06-1.91-.09-.36-.31-.72-.61-1.09-.92-.32-.01-.65-.02-.97-.01-2.34-.66-4.7,4.05-7.02-.03-3.67.36-7.33.73-11,1.09-.67-.67-1.34-1.34-2.01-2.02,0-1.3,0-2.59,0-3.89Z"/><path class="cls-12" d="m231.41,24.24c13.89-.06,27.79-.17,41.68-.1,1.07,0,2.13,1.29,3.19,1.97-.12.09-.35.22-.34.26.09.23.23.44.35.66.09.65.19,1.3.28,1.95-1.37,1.04-2.75,2.07-4.12,3.11-1.06-.31-2.12-.61-3.17-.92-2.47-1.68-4.19-1.25-4.99,1.77-.29.12-.58.17-.89.14-.66-.4-1.32-.8-1.98-1.2-2.19-.36-4.38-.84-6.59-1.05-1.47-.14-2.98.1-4.47.18-3.33.04-6.67.07-10,.11-2.08.31-4.16.62-6.84,1.02-.32-.32-1.21-1.23-2.11-2.15,0-1.92,0-3.84,0-5.76Z"/><path class="cls-24" d="m169.4,26.19c0,1.3,0,2.59,0,3.89-4.01,2.22-10.8-3.65-12.53,4.55-8.3-4.24-11.52-4.23-13.77-1.1-5.35-.19-10.01-.35-14.67-.52-3.06-3.09-8.74-2.56-10.07.95-1,.03-1.99.06-2.99.09,1-2.28,2-4.57,3-6.85,2.39-.38,4.78-1.07,7.17-1.08,11.29-.06,22.58.06,33.87.12,2.05,3.03,4.11,2.52,6.17,0,1.27-.01,2.54-.02,3.81-.04Z"/><path class="cls-21" d="m227.37,58.19c-11.67-.13-23.33-.26-35-.38-.99-.62-2.06-1.13-2.94-1.87-1.06-.9-1.95-2.01-2.91-3.02,5.25-.26,10.52-.42,15.76-.87,1.03-.09,1.96-1.31,2.93-2,.13-.64.25-1.28.38-1.92.53,0,1.06,0,1.59,0,1.07,1.59,2.14,3.18,3.21,4.77,3.03-.33,6.06-.66,9.09-.99,4.3.35,8.59.69,12.89,1.04-1.67,1.75-3.33,3.49-5,5.24Z"/><path class="cls-6" d="m551.48,32.21c5.65.38,7.08,3.3,4.86,9.91-.12.09-.36.23-.35.26.1.23.25.44.38.66-.32,5.01-.64,10.03-.96,15.04-2.32,1.35-4.65,2.71-6.97,4.06.35-3.02.69-6.04,1.04-9.06-.01-.68-.02-1.37-.04-2.05.01-.99.02-1.97.03-2.96-.32-1.32-.63-3.78-.95-3.79-2.68,0-5.36.44-8.04.74-.66,0-1.31.01-1.97.02-1.68-1.97-3.36-3.94-5.04-5.91,4.49-.06,8.98-.14,13.47-.16,1.97,0,3.83.02,3.36-2.83.39-1.32.78-2.63,1.17-3.95Z"/><path class="cls-20" d="m275.47,58.93c-10.69,0-21.38,0-32.06,0,0-2.28,0-4.56,0-6.83.98-.13,1.95-.25,2.93-.38.66.07,1.31.13,1.97.19.67-.24,1.33-.49,2-.73,2.31-.32,4.63-.64,7.08-.98-.07-.43.03.2.14.83.32.26.63.52.95.78,4.38-.28,8.76-.55,13.14-.83.98.03,1.96.06,2.94.09.31,2.62.61,5.23.92,7.85Z"/><path class="cls-19" d="m548.44,62.14l6.97-4.06c-.01,2.34-.02,4.67-.03,7.01-.25.68-.5,1.37-.74,2.05-.07,1.65-.14,3.3-.21,4.95-2.19,1.38-4.34,2.77-.79,5.05-.08,1.65-.16,3.3-.24,4.96-.25,1.35-.51,2.7-.76,4.05-.08,1.65-.15,3.3-.23,4.95-.26,1.02-.51,2.03-.77,3.05-.08.98-.16,1.97-.25,2.95h-6.22c1.15-8.82,2.2-16.91,3.26-25,0-3.32.01-6.63.02-9.95Z"/><path class="cls-7" d="m19.4,45.84c-1.01-.27-2.02-.53-3.03-.8-.61-.98-1.22-1.96-1.82-2.94-.12-.31-.19-.64-.2-.97,0-.37,0-.75.01-1.12.33.02.67.04,1,.05,1.66,1.04,3.33,2.09,4.93,3.1.79-2.65,1.43-4.78,2.07-6.91,4.33-.02,8.67-.03,13-.05-1.92.63-3.8,1.54-5.77,1.83-2.08.31-4.49-.3-4.21,3.07-.44.82-.89,1.63-1.58,2.9h19.61c8,0,16-.02,24-.03,5.63.06,11.27.11,16.9.17,0,.57.02,1.13.03,1.7-20.66.03-41.33.06-61.99.08-.98-.02-1.95-.04-2.93-.06Z"/><path class="cls-16" d="m25.37,41.08c-.27-3.37,2.13-2.76,4.21-3.07,1.97-.29,3.85-1.19,5.77-1.83,11.88-.05,23.76-.11,35.64-.11.74,0,1.48.53,2.18.84-.96,1.41-1.87,2.81-2.78,4.21-1,.03-1.99.06-2.99.09-8,0-15.99-.01-23.99-.02-6.02-.04-12.03-.08-18.05-.11Z"/><path class="cls-22" d="m382.45,86.08c-1.74.71-3.48,1.41-5.21,2.12-.58-.34-1.16-.68-1.75-1.01-.51-2.77-1.02-5.53-1.28-6.98,4.22-1.28,7.23-2.2,10.25-3.12,0-2.23,0-4.45,0-7.27,2.02.65,3.07.98,4.12,1.32l.02,2.85c-2.34,2.92-.36,5.02,1.28,7.3,2.29,3.17,4.42,6.45,6.62,9.68-1.36-.14-2.98.14-4.02-.51-1.78-1.12-3.33-2.69-4.71-4.31-1.87-2.18-3.53-1.61-5.33-.07Z"/><path class="cls-2" d="m86.55,33.04c-.06-7.77-.17-15.53-.12-23.3,0-1.21.7-2.41,1.07-3.62.98,5.35,1.96,10.7,2.94,16.06.35,2.62.7,5.25,1.05,7.87-2.65,2.72-2.11,4.77,1.66,4.89,4.06.13,8.14-.55,12.21-.88,1.98.34,3.96.68,5.94,1.03-.05.34-.09.68-.14,1.02-1.26.93-2.53,1.86-3.79,2.79-.31.08-.62.18-.92.3-1.22-.35-2.42-.91-3.67-1.03-4.79-.44-9.6-.73-14.4-1.08-.61-1.35-1.22-2.7-1.82-4.05Z"/><path class="cls-24" d="m384.46,77.09c-3.02.92-6.04,1.84-10.25,3.12.26,1.44.77,4.21,1.28,6.98-.35.96-.69,1.93-1.04,2.89-1.34-.73-2.68-1.45-4.02-2.18-.68-.96-1.36-1.92-2.04-2.88.35-4.98.71-9.96,1.06-14.94.64-.06,1.27-.13,1.91-.19,5.14,1,10.2,2.15,13.1,7.2Z"/><path class="cls-15" d="m111.29,35.08c-1.98-.34-3.96-.68-5.94-1.03-.03-1.39-.05-2.77-.08-4.16.03-1.41.63-3.2-.01-4.16-2.44-3.65-5.27-7.03-7.96-10.51.03-1.36.06-2.73.08-4.09,3.02,3.43,6.2,6.74,9.03,10.33,3.11,3.95,5.74,8.44,11.96,5.72-1,2.28-2,4.57-3,6.85-.19.33-.38.66-.57,1-.36,0-.73.01-1.09.02-.81,0-1.62.02-2.42.03Z"/><path class="cls-16" d="m350.44,2.21c5.04-.7,10.08-1.47,15.13-2.04.95-.11,1.98.54,2.98.84-.36.35-.73.7-1.09,1.05-2.98.62-5.97,1.24-8.96,1.86.88,1.82,1.92,3.98,2.96,6.14h-.01c-.72.04-1.45.07-2.17.1l-3.84-1.3c-3.02-2.61-9.16-2.57-11.98.08-2.53.01-5.06.03-7.59.04-1.1-4.63,2.07-4.58,5.18-4.96,3.16-.38,6.26-1.19,9.39-1.81Z"/><path class="cls-14" d="m401.51,59.91c-6.45-.09-10.4,3.14-12.21,9.21-1.97-.06-3.95-.12-5.92-.19.38-8.99,4.73-13.28,14.08-13.85,1.35,1.01,2.7,2.03,4.05,3.04,0,.6,0,1.19,0,1.79Z"/><path class="cls-15" d="m396.51,90.97c-2.2-3.23-4.33-6.51-6.62-9.68-1.64-2.27-3.62-4.38-1.28-7.3,4.9,7.1,9.84,14.17,14.68,21.31,3.75,5.54,7.37,11.18,11.05,16.77-.96,0-1.91,0-2.87,0-2.01-3-4.02-5.99-6.03-8.99-2.98-4.04-5.95-8.08-8.93-12.12Z"/><path class="cls-7" d="m350.44,2.21c-3.13.62-6.23,1.42-9.39,1.81-3.12.38-6.28.33-5.18,4.96-6.81,0-13.62-.01-20.43-.02,0-1.25,0-2.5,0-3.75,1.99-.09,3.97-.17,5.96-.26,1.94,1.52,3.76,2.22,5.04-.74,1.01-.01,2.03-.02,3.04-.04.32.01.63.02.95.04,6.67-.67,13.35-1.33,20.02-2Z"/><path class="cls-19" d="m468.35,77.22c-8.94-2.84-17.9-5.62-26.8-8.58-2.5-.83-4.84-2.18-7.25-3.29.37-.1.74-.2,1.12-.3.34-.32.68-.63,1.02-.95,7.35,2,14.69,3.99,22.04,5.99,2.67,1.32,5.33,2.64,8,3.95.7.95,1.41,1.91,2.11,2.86,0,0-.24.31-.24.31Z"/><path class="cls-22" d="m97.39,11.12c-.03,1.36-.06,2.73-.08,4.09-2.51-2.3-2.79-.13-3.6,1.63-.87,1.88-2.16,3.56-3.26,5.33-.98-5.35-1.96-10.7-2.94-16.06,3.35-2.42,7.97-.88,8.67,2.82.15.78.8,1.46,1.23,2.19Z"/><path class="cls-19" d="m186.52,52.91c.96,1.02,1.85,2.12,2.91,3.02.87.75,1.95,1.26,2.94,1.87-8.01-.21-16.02-.41-24.03-.62,1-1.72,2-3.44,3.01-5.15.04-.31.07-.61.07-.92,2.9,4.39,3.94,4.48,8.13.68.62-.24,1.25-.47,1.87-.71l.49-.05s.49.09.49.09c.71.04,1.43.07,2.14.11.58-.32,1.15-.65,1.73-.97.09.88.17,1.77.26,2.65Z"/><path class="cls-8" d="m374.45,90.07c.35-.96.69-1.93,1.04-2.89.58.34,1.17.68,1.75,1.01,3.97,6.36,7.95,12.72,11.88,19.1.77,1.24,1.33,2.6,1.99,3.91-.09.64-.18,1.28-.27,1.92-.46-.02-.92-.05-1.38-.07-1.7-2.04-3.4-4.07-5.1-6.11-1.3-2.21-2.61-4.42-3.91-6.63-1.34-2.13-2.68-4.26-4.02-6.39-.66-1.28-1.32-2.56-1.97-3.84Z"/><path class="cls-4" d="m401.51,59.91c0-.6,0-1.19,0-1.79.29-.09.58-.16.88-.22,3.02.12,6.04.24,9.06.35,5.34.92,10.68,1.84,16.03,2.76,2.28,1.48,4.56,2.97,6.84,4.45-.1.26-.3.37-.57.32-.78-.23-1.55-.46-2.33-.69-9.97-1.73-19.94-3.46-29.91-5.19Z"/><path class="cls-21" d="m110.3,53.22c-1.28-.89-3.54-1.67-3.65-2.69-.41-3.81-2.33-4.91-5.77-4.47-2.88.37-5.76.66-8.64.99-.61.34-1.22.69-1.84,1.03l-1.06-4.04c1.06-.62,2.11-1.25,3.17-1.87,1.01.64,2.06,1.87,3.03,1.81,5.89-.34,11.93,1.51,17.68-1.07.35,1.04.7,2.08,1.04,3.11,0,.7-.02,1.39-.03,2.09-.95.75-1.9,1.5-2.85,2.26-.36.95-.72,1.9-1.08,2.85Z"/><path class="cls-12" d="m243.41,52.1c0,2.28,0,4.56,0,6.83-5.35-.25-10.69-.5-16.04-.75,1.67-1.75,3.33-3.49,5-5.23.64-2.6,1.28-5.19,1.92-7.79.06-.69.12-1.38.17-2.07.98.64,1.95,1.28,2.93,1.92-.67.36-1.33.73-2,1.09-.08.31-.08.62,0,.93.05,1,.1,2,.15,3,1.23.89,2.47,1.78,3.7,2.67.78-.2,1.56-.4,2.34-.6.29-.35.58-.71.86-1.06.32.35.64.7.96,1.06Z"/><path class="cls-7" d="m367.45,2.06c.36-.35.73-.7,1.09-1.05,3.89-.31,8.02-1.59,11.62-.7,5.43,1.34,4.56,6.39,4.11,10.7-.92,0-1.85,0-2.77,0-.02-1.64-.04-3.29-.06-4.93-.05-.12-.08-.25-.15-.35-.05-.06-.17-.06-.25-.08.14.14.28.27.42.41-.96.95-1.82,2.52-2.9,2.69-1.17.19-2.55-.92-4.93-1.93,2.36-.24,3.49-.35,4.62-.47.18-.58.36-1.17.54-1.75-2.17-.64-4.66-2.27-6.45-1.7-3.37,1.07-1.76,3.95-.85,6.27.36.91.6,1.87.9,2.81-.63,0-1.26,0-1.89-.01-.34-.63-.67-1.26-1.01-1.89-.68-2.67-1.36-5.34-2.05-8.01Z"/><path class="cls-12" d="m277.39,29.25c6.61-3.1,8.41-3.03,12.14.9.64-2.9,1.21-5.46,1.78-8.03.4-.04.8-.08,1.21-.13l.04-.1c-.71,4.37-1.42,8.75-2.13,13.12-.59,0-1.17-.02-1.76-.02-3.07-4.55-6.84-1.32-10.35-.92-.31-1.61-.62-3.21-.93-4.82Z"/><path class="cls-10" d="m15.36,40.04c-.33-.01-.67-.03-1-.05-.44-.43-.88-.86-1.32-1.28-.26.68-.52,1.35-.78,2.03.02.35.03.7.05,1.05-.28-.09-.56-.13-.86-.14-3.14-.89-6.16-1.26-8.34,1.94-1.05-.46-2.9-.8-2.99-1.39-.28-1.94-.07-4.01.35-5.94.08-.38,1.99-.59,3.02-.5,3.98.31,7.95.77,11.92,1.17-.02,1.04-.04,2.08-.07,3.13Z"/><path class="cls-19" d="m149.38,56.9c-6.99,0-13.98,0-20.97,0,.35-2.21.7-4.42,1.05-6.63,3.26,3.94,4.23,3.92,7.83-.14.27.31.54.61.81.92.78.25,1.56.5,2.34.74h3.93c-.04-.2.09.43.22,1.05.8.74,1.57,1.51,2.4,2.21.76.65,1.59,1.22,2.39,1.83Z"/><path class="cls-11" d="m302.41,78.06c-1.61,0-3.22-.01-4.84-.02-.63-6.33-1.26-12.67-1.89-19,.59-.66,1.17-1.32,1.76-1.98,1.66,1.34,3.32,2.69,4.98,4.03,0,.32.02.65.03.97-.83,5.33-2.33,10.66-.04,16Z"/><path class="cls-2" d="m292.52,22c-.4.04-.8.08-1.21.13-2.89-8.78.36-14,9.36-15.09,4.92-.6,9.83-1.22,14.75-1.83,0,1.25,0,2.5,0,3.75-4.49.04-8.97.06-13.46.13-6.91.11-9.52,2.71-9.51,9.42,0,1.16.04,2.33.06,3.49Z"/><path class="cls-14" d="m434.32,65.46c-2.28-1.48-4.56-2.97-6.84-4.45-.34-.68-.68-1.36-1.02-2.04,3.07.58,6.27.81,9.2,1.8,7.67,2.59,15.22,5.51,22.82,8.3,0,.34,0,.69,0,1.03-7.35-2-14.69-3.99-22.04-5.99-.34.32-.68.63-1.02.95-.37.1-.74.2-1.12.3,0,0,.02.11.02.11Z"/><path class="cls-6" d="m149.38,56.9c-.8-.61-1.62-1.18-2.39-1.83-.83-.7-1.6-1.47-2.4-2.21,2.36-.34,4.72-.69,7.08-1.03l.35.02h.35c1.69.04,3.38.08,5.07.12h3.92c1.03-.21,2.07-.42,3.1-.62-.02,1.26-.04,2.53-.07,3.79,0,.6,0,1.21,0,1.81-5-.01-10.01-.03-15.01-.04Z"/><path class="cls-4" d="m394.6,29.08c1.78.45,3.56.89,5.34,1.34-.16,1.14-.32,2.29-.49,3.43-.52.39-1.04.78-1.56,1.17-.11.36-.22.72-.33,1.08-.07.32-.16.62-.26.93-1.28-.67-2.55-1.33-3.83-2-.35.2-.71.39-1.06.59-1.32-.14-2.63-.28-3.95-.41-.67-.09-1.33-.17-2-.26-2.42.09-4.84.18-7.26.28.16-.28.18-.57.08-.88.08-.37.16-.74.24-1.11,2.62-.07,5.23-.15,7.85-.22,1.42-.33,2.85-.66,4.79-1.1-3.04-1.51-5.34-2.65-7.64-3.8.97-.04,1.94-.07,2.91-.11,2.39.36,4.78.72,7.17,1.08Z"/><path class="cls-12" d="m411.47,112.07c.96,0,1.91,0,2.87,0,.4,1.82,1.54,3.92.98,5.37-.49,1.27-2.79,2.14-4.45,2.6-3.07.85-6.25,1.28-9.39,1.88.14-5.59,3.21-7.5,10.53-6.19-.19-1.31-.37-2.48-.54-3.66Z"/><path class="cls-2" d="m368.39,85.01c.68.96,1.36,1.92,2.04,2.88-10.32.01-20.65.03-30.97.04.02-.51.04-1.03.06-1.54l.16-.22-.16-.22c8.34-.74,17.17,2.71,24.92-2.96.85,1.58,1.25,4.05,3.96,2.03Z"/><path class="cls-21" d="m335.61,87.4c-.38-.43-.75-.85-1.13-1.28-.31-4.99-.61-9.98-.92-14.97,2.02,0,4.04,0,6.06,0-2.87,3.5-3.3,7.11-.82,11.08.62,1,.5,2.47.72,3.73l.16.22s-.16.22-.16.22c-.72.29-1.44.58-2.17.87l-1.73.14Z"/><path class="cls-4" d="m277.39,29.25c.31,1.61.62,3.21.93,4.82.09,1.32.17,2.64.26,3.95.25,1.65.51,3.31.76,4.96-.23,1.67-.45,3.34-.68,5.01-.11.51-.23,1.02-.34,1.53-.27.91-.54,1.81-.81,2.72-.68,2.23-1.36,4.46-2.04,6.69-.31-2.62-.61-5.23-.92-7.85,2.51-3.35,2.67-10.68.31-14.21-.8-1.59-1.6-3.19-2.4-4.78,1.37-1.04,2.75-2.07,4.12-3.11.28.06.55.15.81.27Z"/><path class="cls-23" d="m387.44,28c-.97.04-1.94.07-2.91.11-.36-.68-.72-1.36-1.07-2.04.86-1.07,1.71-2.14,2.54-3.17-1.12-.91-2.33-1.9-3.55-2.9.04-1.64,3.07-3.28.01-4.93l1.82-2.97c3.66,2.31,5.07,6.06,6.29,9.92-1.04,1.99-2.08,3.99-3.12,5.98Z"/><path class="cls-15" d="m491.46,82.08c.33,0,.66,0,.99,0,1.02,0,2.03,0,3.04,0,1.02.33,2.04.66,3.12,1.01-1.85,1.03-3.49,1.94-5.13,2.85-5-1.67-10-3.34-15.01-5.01-1.67-1.28-3.34-2.56-5-3.84,5.99,1.67,11.99,3.33,17.98,5Z"/><path class="cls-6" d="m129.46,50.28c-.35,2.21-.7,4.42-1.05,6.63-2.63-.26-5.26-.53-7.88-.79-.39-1.28-.79-2.55-1.18-3.83,1.01-.74,2.03-1.49,3.04-2.23.25.07.51.11.77.09,1.76-.02,3.51-.05,5.27-.07.34.06.69.13,1.03.19Z"/><path class="cls-6" d="m86.55,33.04c.61,1.35,1.22,2.7,1.83,4.05-.93,3.35-3.15,4.46-6.52,4.05-2.12-.25-4.3-.04-6.45-.03-.35,0-.7,0-1.05,0-1.32,0-2.63,0-3.95,0,.91-1.4,1.83-2.8,2.78-4.21,2.85.22,5.66.45,8.47.69.93.17,1.85.33,2.77.5.64.03,1.28.05,1.92.08v-2.27c.06-.96.13-1.92.2-2.88Z"/><path class="cls-21" d="m387.44,28c1.04-1.99,2.08-3.99,3.12-5.98,2.49.52,4.97,1.03,7.61,1.58-1.16,1.79-2.36,3.64-3.56,5.49-2.39-.36-4.78-.72-7.17-1.08Z"/><path class="cls-22" d="m384.36,106.94c1.7,2.04,3.4,4.07,5.1,6.11,1.66,3.61,3.31,7.23,4.97,10.84-.99-.27-1.97-.55-2.96-.82-.02-.67-.04-1.35-.06-2.02-2.35-4.7-4.7-9.41-7.05-14.11Z"/><path class="cls-1" d="m536.55,31.97c-16.36.02-32.71.04-49.07.06,0-.26-.01-.52-.03-.79,15.49-.07,30.98-.15,46.47-.17.87,0,1.75.58,2.62.9Z"/><path class="cls-13" d="m384.27,12.1c-.61.99-1.21,1.98-1.82,2.97-1.75-.36-3.55-1.16-5.24-.98-2.29.25-4.49,1.25-6.74,1.93-.03.33-.06.66-.07,1-4.19-.24-.77-3.48-1.93-4.91.68-.05,1.35-.1,2.03-.15.63,0,1.26,0,1.89.02,3.04-.32,6.07-.65,9.11-.97.92,0,1.85,0,2.77,0,0,.36,0,.73,0,1.09Z"/><path class="cls-15" d="m383.38,68.93c1.97.06,3.95.12,5.92.19-.24.67-.47,1.35-.71,2.02-1.05-.34-2.1-.67-4.12-1.32,0,2.82,0,5.05,0,7.27-2.91-5.06-7.96-6.2-13.1-7.2,4.01-.32,8.01-.64,12.02-.96Z"/><path class="cls-15" d="m290.34,42.02c.39,2.01.77,4.03,1.16,6.04-.35.67-.71,1.34-1.06,2.01-1.66.35-3.33.69-4.99,1.04-.14-.41-.28-.82-.42-1.23.75-2.23,1.49-4.45,2.23-6.68.4-1.75-.76-4.67,2.96-3.92l.13,2.75Z"/><path class="cls-4" d="m15.36,40.04c.02-1.04.04-2.08.07-3.13,2.31-.23,4.62-.46,6.93-.69-.64,2.13-1.27,4.27-2.07,6.91-1.61-1.01-3.27-2.05-4.93-3.1Z"/><path class="cls-5" d="m231.41,24.24c0,1.92,0,3.84,0,5.76-.91.44-1.83.89-2.74,1.33-.74-.1-1.49-.2-2.23-.3-.76-1.17-1.53-2.34-2.05-3.14,1.04-.92,2.04-1.8,3.03-2.67,1.33-.33,2.66-.66,3.99-.99Z"/><path class="cls-21" d="m290.43,50.06c.35-.67.71-1.34,1.06-2.01,1.72.43,3.45.85,5.5,1.36-1.79.69-3.25,1.24-5.83,2.23,2.17.24,3.17.36,4.18.47.04.64.09,1.28.13,1.92-.35.68-.7,1.36-1.05,2.04-.2.27-.41.54-.61.81-4.35-.67-3.3-4.03-3.39-6.82Z"/><path class="cls-14" d="m399.45,33.85c.16-1.14.32-2.29.49-3.43,1.51.53,3.02,1.07,4.53,1.6-.02,1.05-.03,2.09-.05,3.14-.3,1.04-.6,2.08-.9,3.12,0,0,.03.14.03.14-1.09.19-2.18.37-3.27.56-.28-1.71-.56-3.43-.83-5.14Z"/><path class="cls-22" d="m227.42,25.22c-.99.88-1.99,1.75-3.03,2.67.52.8,1.29,1.97,2.05,3.14-1.01.68-2.02,1.35-3.03,2.03-.33-2.63-.67-5.25-1-7.88,1.67.01,3.34.03,5.01.04Z"/><path class="cls-21" d="m164.39,56.94c0-.6,0-1.21,0-1.81.39-.72.78-1.45,1.18-2.17,1.92-.31,3.85-.62,5.77-.93-1,1.72-2,3.44-3.01,5.15-1.32-.08-2.63-.16-3.95-.24Z"/><path class="cls-7" d="m551.48,32.21c-.39,1.32-.78,2.63-1.17,3.95-2.95-.1-5.89-.21-8.84-.31.34-.59.69-1.18,1.03-1.77,2.19-.58,4.37-1.15,6.56-1.73.81-.04,1.61-.09,2.42-.13Z"/><path class="cls-16" d="m404.43,35.17c.02-1.05.03-2.09.05-3.14,2.34.08,4.68.16,7.02.24-.02.96-.04,1.93-.06,2.89-2.34,0-4.67,0-7.01,0Z"/><path class="cls-18" d="m3.11,43.59c2.18-3.21,5.2-2.84,8.34-1.94-1.36.8-2.72,1.6-4.08,2.4-.32.08-.65.09-.97.02-1.1-.16-2.2-.32-3.29-.48Z"/><path class="cls-23" d="m89.33,44.05c.35,1.35.7,2.7,1.06,4.04-1.01.31-2.01.62-3.02.93-.38-.68-.77-1.36-1.15-2.04-.63-.39-1.26-.78-1.9-1.17,0-.57-.02-1.13-.03-1.7,1.68-.02,3.36-.05,5.04-.07Z"/><path class="cls-4" d="m119.34,52.29l1.18,3.83c-1.41.38-2.82.76-4.23,1.14-.31-1.35-.62-2.7-.92-4.04,1.33-.3,2.65-.61,3.98-.92Z"/><path class="cls-19" d="m473.48,77.08c1.67,1.28,3.34,2.56,5,3.84-3.38-1.23-6.76-2.47-10.14-3.7,0,0,.24-.31.24-.3,1.63.05,3.26.1,4.89.16,0,0,0,0,0,0Z"/><path class="cls-27" d="m376.43,93.91c1.34,2.13,2.68,4.26,4.02,6.39-1.01.17-2.02.35-3.04.52-.65-1.25-1.31-2.5-1.96-3.75.33-1.06.65-2.11.98-3.17Z"/><path class="cls-6" d="m277.51,52.24c.27-.91.54-1.81.8-2.71,1.1.03,2.2.06,3.31.09.39.37.77.73,1.16,1.1.34.29.68.58,1.03.87.15-.11.27-.25.36-.41l.24,1.75c-2.29-.23-4.59-.46-6.88-.69Z"/><path class="cls-6" d="m86.22,46.99c.38.68.77,1.36,1.15,2.04.68.95,1.36,1.89,2.03,2.83-1.92-1.06-7.12.02-3.19-4.87Z"/><path class="cls-16" d="m549.06,32.34c-2.19.58-4.37,1.15-6.56,1.73-.33-.59-.67-1.18-1-1.77,2.52.01,5.04.03,7.56.04Z"/><path class="cls-15" d="m89.41,51.86c-.68-.94-1.36-1.89-2.03-2.83,1.01-.31,2.01-.62,3.02-.93.61-.34,1.22-.69,1.84-1.03,0,1.33,0,2.67,0,4-.28.26-.57.52-.85.78-.65,0-1.31.01-1.96.02Z"/><path class="cls-2" d="m553.63,77.13c-3.55-2.28-1.4-3.67.79-5.05-.26,1.68-.53,3.37-.79,5.05Z"/><path class="cls-15" d="m165.59,26.22c-2.06,2.52-4.12,3.02-6.17,0,2.06,0,4.11,0,6.17,0Z"/><path class="cls-6" d="m115.37,53.21c.31,1.35.62,2.7.93,4.05-1.64-.7-3.29-1.4-4.93-2.1,1.31-.62,2.62-1.25,3.93-1.87,0,0,.08-.08.08-.08Z"/><path class="cls-2" d="m326.43,4.21c-1.28,2.96-3.11,2.25-5.04.74,1.68-.25,3.36-.49,5.04-.74Z"/><path class="cls-2" d="m115.29,53.29c-1.31.62-2.62,1.25-3.93,1.87-.35-.65-.71-1.29-1.06-1.94.36-.95.72-1.9,1.08-2.85-.04.28,0,.56.08.84.96.42,1.92.84,2.88,1.26.32.27.63.54.95.82Z"/><path class="cls-11" d="m375.45,97.08c.65,1.25,1.31,2.5,1.96,3.75-3.79.39-3.42-1.39-1.96-3.75Z"/><path class="cls-2" d="m552.63,86.14c.25-1.35.51-2.7.76-4.05-.25,1.35-.51,2.7-.76,4.05Z"/><path class="cls-22" d="m6.41,44.07c.33.06.65.06.97-.02,1.64-.04,3.27-.07,4.91-.11.37.22.74.45,1.11.67v.16c-2.34-.23-4.67-.46-7-.7Z"/><path class="cls-21" d="m297.44,57.07l-1.76,1.98c-.62-.72-1.24-1.44-1.86-2.16.2-.27.41-.54.61-.81,1,.33,2.01.66,3.01.99h0Z"/><path class="cls-7" d="m84.42,38.1c-.92-.16-1.85-.33-2.77-.5,0,0,.21-.31.21-.31.5-.36,1-.72,1.5-1.08.99-.1,1.98-.2,2.97-.3,0,.76,0,1.51.01,2.27-.64-.03-1.28-.05-1.92-.08Z"/><path class="cls-2" d="m551.63,94.14c.26-1.02.51-2.03.77-3.05-.26,1.02-.51,2.03-.77,3.05Z"/><path class="cls-4" d="m13.4,44.77s0-.16,0-.16c.38-.84.76-1.68,1.14-2.52.61.98,1.22,1.96,1.82,2.94-.99-.09-1.98-.18-2.98-.27Z"/><path class="cls-26" d="m391.41,121.04c.02.67.04,1.35.06,2.02-.74-.2-1.48-.41-3.02-.83,1.44-.58,2.2-.88,2.95-1.19Z"/><path class="cls-19" d="m337.35,87.26c.72-.29,1.44-.58,2.17-.87-.02.52-.04,1.03-.06,1.54-.7-.23-1.41-.45-2.11-.68Z"/><path class="cls-18" d="m487.46,31.24c.02.26.03.52.03.79-1.38-.17-2.77-.34-4.15-.51,1.37-.09,2.75-.19,4.12-.28Z"/><path class="cls-2" d="m554.63,67.14c.25-.68.5-1.37.74-2.05-.25.68-.5,1.37-.74,2.05Z"/><path class="cls-11" d="m284.39,52.92c-.08-.58-.16-1.17-.24-1.75.29-.43.57-.87.86-1.31.14.41.28.82.42,1.23-.35.61-.7,1.21-1.05,1.82Z"/><path class="cls-4" d="m19.4,45.84c.98.02,1.95.04,2.93.06-.98-.02-1.95-.04-2.93-.06Z"/><path class="cls-19" d="m431.42,65.09c.78.23,1.55.46,2.33.69-.78-.23-1.55-.46-2.33-.69Z"/><path class="cls-18" d="m458.63,31.48c-.41.17-.82.34-1.23.52.41-.17.82-.34,1.23-.52Z"/><path class="cls-2" d="m556.38,43.04c-.13-.22-.28-.43-.38-.66-.01-.03.23-.17.35-.26.16.3.17.61.03.92Z"/><path class="cls-22" d="m91.37,51.84c.28-.26.57-.52.85-.78-.28.26-.57.52-.85.78Z"/><path class="cls-2" d="m83.36,36.21c-.5.36-1,.73-1.5,1.08.5-.36,1-.72,1.5-1.08Z"/><path class="cls-2" d="m330.42,4.21c-.32-.01-.64-.02-.95-.04.32-.13.64-.12.95.04Z"/><path class="cls-4" d="m276.3,27.03c-.12-.22-.27-.43-.35-.66-.01-.04.22-.17.34-.26.16.3.16.61.02.92Z"/><path class="cls-10" d="m482.47,39.23c-.24,1.13-.93,2.41-.61,3.35.65,1.87,1.86,3.54,2.83,5.29,1.22-.84,2.37-1.83,3.69-2.49,1.57-.78,3.76-2.25,4.85-1.72,5.98,2.9,11.71,6.32,17.55,9.58-4.1,6.8-2.92,8.66,4.49,8.83,8.4.19,16.49,7.76,17.12,16.09.04.55-.41,1.14-.81,2.18-1.53-1.17-2.74-2.09-4.2-3.21-6.49,6.03-14.8,2.8-23.19,4.81-.41-2.84-.19-5.76-1.34-7.97-1.21-2.32-3.44-4.49-5.76-5.72-1.82-.97-3.43-.67-3.03-3.76.56-4.38-7.61-9.55-11.84-7.9-3.69,1.44-9.53-2.33-9.62-6.77-.09-4.48.12-8.48-6.13-8.13-.28.02-.66-1.64-1-2.52,5.66.02,11.33.04,16.99.06Z"/><path class="cls-4" d="m548.44,62.14c0,3.32-.01,6.63-.02,9.95-9.17.13-10.46-.42-15.9-6.97,1.22-1.54,2.5-3.17,3.61-4.58-1.07-5.55-4.52-6.89-9.48-6.53-7.82.57-13.87-4.03-20.25-7.55-1.42-.78-2.98-1.49-4.06-2.63-1.2-1.26-1.93-2.97-2.87-4.48,3.33,0,6.66-.02,9.99-.03-.39,3.73,1.44,4.78,4.97,4.85,3.49.07,6.96,1.05,10.45,1.48.83.1,1.73-.37,2.6-.57,1.66,0,3.33,0,4.99,0,3.79,3.64,7.59,7.27,11.44,10.97,1.88-1.01,3.72-1.99,5.56-2.97-.35,3.02-.69,6.04-1.04,9.06Z"/><path class="cls-4" d="m429.47,49.07c8.8.67,17.6,1.22,26.37,2.14,1.29.13,2.72,1.79,3.53,3.09,1.17,1.87,1.87,4.03,2.69,6.1,1.89,4.73,4.07,6.3,7.66,1.19.5-.71,2.87-.1,4.98-.1-1.97,2.61-3.1,4.1-4.22,5.59-2,1-4,2.01-6,3.01-1-.34-2-.67-3-1.01-3.85-7.22-10.01-11.68-18-11.78-6.75-.09-10.54-3.45-14.01-8.22h0Z"/><path class="cls-1" d="m482.47,39.23c-5.66-.02-11.33-.04-16.99-.06-15.67-.02-31.34-.04-47.01-.05-4.98-.28-9.96-.56-14.94-.84.3-1.04.6-2.08.9-3.12,2.34,0,4.67,0,7.01,0,24.85.28,49.71.56,74.56.86,1.82.02,3.64.15,5.45.23,0,.84,0,1.68-.01,2.52-2.99.15-5.97.31-8.96.46Z"/><path class="cls-18" d="m491.43,38.77c0-.84,0-1.68.01-2.52,14.53-.06,29.07-.1,43.6-.18,2.14-.01,4.28-.15,6.42-.23,2.95.1,5.89.21,8.84.31.47,2.84-1.4,2.82-3.36,2.83-4.49.02-8.98.1-13.47.16-2.67.03-5.34.06-8,.09-5.34.03-10.67.06-16.01.09-3.33,0-6.66.02-9.99.03-2.68-.19-5.36-.38-8.04-.58Z"/><path class="cls-4" d="m403.53,38.28c4.98.28,9.96.56,14.94.84,1.34,1.61,2.5,3.41,4.05,4.77,2.16,1.9,4.62,3.46,6.95,5.17,0,0,0,0,0,0-2.21.39-4.98.09-6.52,1.32-3.07,2.44-4.24,1.27-6.23-1.29-2.45-3.15-5.23-6.83-10.25-4.06-.99,0-1.98,0-2.97,0-.06-1.64-.11-3.28-.17-4.91.08-.57.16-1.14.24-1.71l-.03-.14Z"/><path class="cls-19" d="m491.46,82.08c-5.99-1.67-11.99-3.33-17.98-5,0,0,0,0,0,0-.66-.66-1.33-1.32-1.99-1.98.31-.66.63-1.32.94-1.98.69.31,1.39.63,2.08.94,5.27,1.99,10.57,3.95,15.8,6.05.56.22.78,1.3,1.15,1.98Z"/><path class="cls-15" d="m474.51,74.05c-.69-.31-1.39-.63-2.08-.94-2.65-1.01-5.3-2.02-7.95-3.03,2-1,4-2.01,6-3.01,1.34,2.33,2.69,4.65,4.03,6.98Z"/><path class="cls-15" d="m512.66,89.34c-3.83-1.4-7.66-2.8-11.5-4.2.16-.47.32-.95.48-1.42,3.91,1.18,7.82,2.35,11.72,3.53-.24.7-.47,1.4-.71,2.1Z"/><path class="cls-19" d="m495.5,82.07c-1.01,0-2.03,0-3.04,0,1.01,0,2.03,0,3.04,0Z"/><path class="cls-28" d="m290.34,42.02c-.04-.92-.09-1.84-.13-2.76.15-.13.3-.26.45-.38,4.27,0,8.55,0,12.82,0,11.67-.23,23.34-.46,35-.7,5.65.29,11.31.59,16.96.88,0,.99.01,1.98.02,2.96-4.35.68-8.69,1.36-13.04,2.04-1.99-.66-3.99-1.33-5.98-1.99.45-.13.91-.26,1.36-.38l-.28-.39c-.36.26-.72.52-1.08.78-.33,0-.66-.01-.99,0-5.02.03-10.04.06-15.07.09-9.29,0-18.58-.02-27.87-.03-.73-.04-1.45-.08-2.18-.11Z"/><path class="cls-27" d="m333.57,71.14c.31,4.99.61,9.98.92,14.97-1.7.23-3.4.47-5.1.7.02-.27.04-.54.05-.81-.11-7.77-.21-15.55-.32-23.32,1.56-.2,3.22-.12,4.64-.68,1.66-.65,3.1-1.86,4.64-2.82-.35-.33-.65-.86-1.05-.96-5.12-1.25-4.92-3.83-1.85-7.16,2,1.94,4,3.89,6,5.83.45-.19.89-.37,1.34-.56-.48,3.23-.96,6.45-1.44,9.68,0,0,.03.01.03.01-.65.03-1.3.05-1.94.08-2.61.93-6.48.37-5.91,5.03Z"/><path class="cls-28" d="m318.5,50.01c-3.62.02-7.27-.26-10.84.15-4.91.55-8.75-.63-11.25-5.11,7.99-.35,15.98-.7,23.98-1.05,4.99,0,9.98,0,14.97.01.04,1.33.09,2.67.13,4,0,0-.1.11-.1.11-.3.64-.61,1.27-.91,1.91-.38-.02-.77-.04-1.15-.07.05-.28.09-.56.1-.84-4.73-3.78-10.1-1.71-15.25-1.66.09.55.19,1.11.28,1.66-.01.29,0,.59.03.88Z"/><path class="cls-20" d="m335.5,48.01c-.04-1.33-.09-2.67-.13-4,.03-.65.06-1.29.09-1.94.33,0,.66,0,.99,0h0c1.99.66,3.99,1.33,5.98,1.99.01.33.02.67.03,1-.61.94-1.21,1.88-1.7,2.64,1.56.45,3.24.93,4.91,1.41-.52.28-1.04.55-1.56.83.76,3.01,1.51,6.01,2.27,9.02-4.69.26-2.28,3.89-2.9,6.09-.69.32-1.39.65-2.08.97.48-3.23.96-6.45,1.44-9.68-.45.19-.89.37-1.34.56-2-1.94-4-3.89-6-5.83-.33-.34-.66-.69-.99-1.03.3-.64.61-1.27.91-1.91.38.23.76.47,1.16.68.02,0,.17-.24.26-.37-.44-.14-.88-.28-1.32-.43Z"/><path class="cls-18" d="m305.47,82.9c-.99-.67-1.98-1.35-2.98-2.02,1.98-.51,4.1-1.75,5.91-1.4,6.39,1.24,12.68,3.03,19.01,4.62.04.7.08,1.39.12,2.09-2.67.36-5.34.72-8,1.08-4.05-1.37-8.1-2.73-12.14-4.1-.64-.09-1.28-.18-1.92-.27Z"/><path class="cls-9" d="m302.41,78.06c-2.3-5.34-.79-10.67.04-16,5.8,1.03,3.39,5.92,3.57,8.95.13,2.27-2.31,4.7-3.61,7.05Z"/><path class="cls-9" d="m295.48,54.04c-.04-.64-.09-1.28-.13-1.92,1.8-.01,3.66-.3,5.4.03,1.57.3,4.19,1.19,4.26,2,.15,1.68-1.07,3.49-1.76,5.24-.23.59-.55,1.14-.83,1.7-1.66-1.34-3.32-2.69-4.98-4.03,0,0,0,0,0,0-.65-1.01-1.31-2.02-1.96-3.03Z"/><path class="cls-15" d="m338.39,59.19c-1.54.97-2.98,2.17-4.64,2.82-1.42.56-3.08.48-4.64.68-.19.08-.38.15-.57.21-1.97.07-3.97.37-5.9.11-1.04-.14-1.95-1.26-2.92-1.94.93-.67,1.85-1.9,2.81-1.92,5.28-.15,10.57,0,15.85.05Z"/><path class="cls-1" d="m320.4,43.99c-7.99.35-15.98.7-23.98,1.05-1.3-.97-2.6-1.94-3.91-2.92,9.29,0,18.58.02,27.88.03,0,.61,0,1.22,0,1.84Z"/><path class="cls-13" d="m328.55,62.9c.19-.06.38-.13.57-.21.1,7.77.21,15.54.32,23.32-.5.03-1,.06-1.5.09,0,0-.4.08-.4.08-.04-.7-.08-1.39-.12-2.09.38-7.06.75-14.13,1.13-21.19Z"/><path class="cls-18" d="m319.93,64.78v14.64h-.86v-14.64h.86Z"/><path class="cls-23" d="m318.5,50.01c-.03-.29-.04-.59-.03-.88,4.99,0,9.98,0,14.97,0-.01.28-.04.57-.1.84-6.09-.49-3.04,4.49-4.67,7.93-.74-2.92-1.28-5.07-1.99-7.89h-8.18Z"/><path class="cls-21" d="m396.51,90.97c2.98,4.04,5.95,8.08,8.93,12.12-4.4,1.75-7.63.94-10.39-3.38-1.58-2.47-4.68-3.97-7.38-5.37-1.74-2.75-3.48-5.5-5.22-8.26,1.8-1.54,3.46-2.11,5.33.07,1.38,1.61,2.94,3.19,4.71,4.31,1.04.65,2.66.37,4.02.51Z"/><path class="cls-22" d="m390.85,113.12c.09-.64.18-1.28.27-1.92-.09.64-.18,1.28-.27,1.92Z"/><path class="cls-14" d="m128.43,33c4.66.16,9.32.33,14.67.52,2.24-3.13,5.47-3.14,13.77,1.1,1.73-8.19,8.53-2.32,12.53-4.55.67.67,1.34,1.34,2.01,2.02.67.66,1.34,1.32,2.01,1.98-1.68,2.31-3.35,4.61-5.03,6.92-.01.42-.03.84-.04,1.26-.03.17-.03.34,0,.5-.97.53-1.94,1.07-2.92,1.6-2.7-.08-5.41-.17-8.11-.25-.28.57-.57,1.14-.85,1.72-.19.02-.37.05-.56.08-2.63-1.26-4.87-1.52-5.57,2.18-1.92-.36-3.85-.72-5.77-1.08-.05-.29-.07-.59-.05-.89.3-.31.61-.63.91-.94,1.09-.67,2.17-1.35,3.26-2.02.84-.55,1.68-1.09,2.52-1.64-.89-.48-1.77-1.35-2.66-1.37-6.05-.12-12.09-.06-18.14-.06-.21-1.31-.42-2.62-.63-3.93-.37.45-.74.91-1.1,1.36-1.77-.51-3.53-1.03-5.3-1.54,0-.28-.04-.56-.1-.83,1.72-.71,3.45-1.42,5.17-2.14Zm36.62,3.19l.34,1.86c1.13-.15,2.25-.3,3.38-.45-.05-.56-.11-1.12-.16-1.68l-3.56.28Z"/><path class="cls-13" d="m207.18,48.13c-.53,0-1.06,0-1.59,0-.1-.64-.2-1.28-.29-1.92-.52-1.34-1.05-3.83-1.56-3.82-3.28.03-6.56.61-9.84,1,.2.24.39.48.59.72-1.39,2.65-2.76,1.75-4.54.24-1.12-.96-3.13-3.01-3.7.68-.96.03-1.92.05-2.88.08-.33-.05-.66-.1-.99-.15-.22-2.84,1.3-6.39-3.15-7.52-.13-.03.1-1.53.17-2.35,1.01-1.36,2.01-2.71,3.02-4.07,2.32,4.08,4.68-.63,7.02.03.21.4.43.8.64,1.2.11-.39.22-.79.33-1.18.36.31.72.61,1.08.92-.38,1.23-1.02,2.45-1.06,3.69-.04,1.24.18,2.82.94,3.66.65.72,2.22.59,3.48.86-.58-3.25-1.01-5.69-1.44-8.12.03-.16,0-.41.1-.48,1.91-1.41,11.09-1.02,12.9.54.32-.04.64-.08.97-.11.01-.3.04-.6.09-.9,1.32-.35,2.64-.69,3.96-1.03.4.99.8,1.97,1.2,2.96-.86.32-1.72.65-1.5.56v6.6c2.18,0,4.28,0,6.38,0-.98,1.7-1.96,3.39-2.94,5.09-.07,1.24-.13,2.48-.2,3.72-1.52-1.95-3.04-3.9-5.17-6.64-.88,2.53-1.45,4.16-2.01,5.79Zm-23.81-13.4l-1.21.88c.78,1.05,1.55,2.09,2.33,3.14.36-.26.72-.52,1.08-.78-.73-1.08-1.47-2.16-2.2-3.24Z"/><path class="cls-14" d="m217.5,40.18h-6.38v-6.6c-.22.08.64-.24,1.5-.56,3.6.02,7.2.03,10.79.05,1.01-.68,2.02-1.35,3.03-2.03.74.1,1.49.2,2.23.29-.08.25-.16.5-.26.74-.32.5-.63,1.01-.95,1.51.18.18.25.4.21.65-5.05-1.14-6.17,1.87-6.27,5.94-1.3,0-2.6,0-3.9,0Z"/><path class="cls-23" d="m182.41,31c-1.01,1.36-2.01,2.71-3.02,4.07-1.66,0-3.32,0-4.98,0-.33-.33-.66-.66-.99-1-.67-.66-1.34-1.32-2.01-1.98,3.67-.36,7.33-.73,11-1.09Z"/><path class="cls-23" d="m193.39,32.05c.43,2.44.87,4.87,1.44,8.12-1.26-.27-2.84-.15-3.48-.86-.76-.84-.97-2.42-.94-3.66.04-1.24.68-2.46,1.06-3.69.64.03,1.28.06,1.91.09Z"/><path class="cls-14" d="m211.41,30.06c-1.32.34-2.64.69-3.96,1.03,1.32-.34,2.64-.69,3.96-1.03Z"/><path class="cls-23" d="m190.4,31.05c-.11.39-.22.79-.33,1.18-.21-.4-.43-.8-.64-1.2.32,0,.65,0,.97.01Z"/><path class="cls-14" d="m207.36,32c-.32.04-.64.08-.97.11.32-.02.65-.05.97-.11Z"/><path class="cls-11" d="m221.4,40.17c.11-4.07,1.23-7.08,6.27-5.95-.03.47-.05.93-.08,1.4-.17.99-.34,1.97-.51,2.96.46-.52.92-1.05,1.39-1.57h12.18c-.11-2.27-.2-4.08-.29-5.89,3.33-.04,6.67-.07,10-.11.9,2.19,1.8,4.37,2.95,7.19.55-1.39.88-2.24,1.46-3.71,3.23,5.19,6.4,3.34,9.57.63,1.25.57,2.49,1.15,3.74,1.72.4-1.89.8-3.78,1.2-5.67,1.06.31,2.11.61,3.17.92.8,1.59,1.6,3.19,2.4,4.78-1.94,2.39-2.01,5.02-.11,8.42-2.33-.57-3.7-.9-5.07-1.24-4.19-1.59-5.22,1.08-5.61,4.71-.98-1.44-1.7-3.42-2.42-3.42-4.04,0-8.08.48-12.12.8-.41,0-.81-.01-1.21-.02-1.92-.3-3.83-.59-5.75-.89-.26-.44-.53-.87-.79-1.31-.16.42-.32.84-.47,1.26-1.3-.06-2.61-.13-3.91-.19-.98-.64-1.95-1.28-2.93-1.92-2.87-.34-5.77-.54-8.6-1.09-1.54-.3-2.97-1.2-4.45-1.84Z"/><path class="cls-18" d="m240.36,31.12c.09,1.81.18,3.61.29,5.89-4.07,0-8.13,0-12.18,0-.29-.46-.59-.92-.88-1.38.03-.47.05-.94.08-1.4.04-.25-.03-.46-.2-.65.32-.5.63-1,.95-1.51.09-.24.18-.49.26-.74.91-.44,1.83-.89,2.74-1.33.9.91,1.79,1.82,2.11,2.15,2.68-.4,4.76-.71,6.84-1.02Z"/><path class="cls-27" d="m264.34,35.12c-3.17,2.71-6.34,4.55-9.57-.63-.58,1.48-.91,2.32-1.46,3.71-1.16-2.82-2.05-5-2.95-7.19,1.49-.07,3-.32,4.47-.18,2.21.21,4.39.69,6.59,1.05.66.4,1.32.8,1.98,1.2.31.02.61-.02.89-.14.02.73.03,1.45.05,2.18Z"/><path class="cls-1" d="m264.34,35.12c-.02-.73-.03-1.45-.05-2.18.8-3.02,2.53-3.45,4.99-1.77-.4,1.89-.8,3.78-1.2,5.67-1.25-.57-2.49-1.15-3.74-1.72Z"/><path class="cls-11" d="m263.41,33.08c-.66-.4-1.32-.8-1.98-1.2.66.4,1.32.8,1.98,1.2Z"/><path class="cls-22" d="m128.43,33c-1.72.71-3.45,1.42-5.17,2.14-1.63-.4-3.27-.79-4.9-1.19,1.33-3.51,7.01-4.04,10.07-.95Z"/><path class="cls-18" d="m118.36,33.95c1.63.4,3.27.79,4.9,1.19.06.27.1.55.1.83-2.78.1-5.56.2-8.34.29-.07-.41-.15-.82-.22-1.23.19-.33.38-.66.57-1,1-.03,1.99-.06,2.99-.09Z"/><path class="cls-1" d="m186.25,45.01c.57-3.68,2.58-1.64,3.7-.68,1.77,1.51,3.14,2.41,4.54-.24,1.32.37,2.64.74,3.96,1.11-.08,1.46-.15,2.93-.23,4.41,2.25.13,4.62.28,7,.42-.98.7-1.91,1.91-2.93,2-5.24.45-10.5.61-15.76.87-.09-.88-.17-1.77-.26-2.65,0-1.75-.01-3.49-.02-5.24Z"/><path class="cls-26" d="m234.28,45.17c-.64,2.6-1.28,5.19-1.92,7.79-4.3-.35-8.59-.69-12.89-1.04.3-.91.61-1.82.92-2.73,0-.41,0-.81,0-1.22,0-.63,0-1.27.01-1.9,1.74-.32,3.48-.83,5.23-.91,2.87-.14,5.76,0,8.64.01Z"/><path class="cls-26" d="m207.18,48.13c.57-1.63,1.13-3.26,2.01-5.79,2.13,2.74,3.65,4.69,5.17,6.64.01.37.03.73.04,1.09-2.02-.03-4.24-.33-4.02,2.83-1.07-1.59-2.14-3.18-3.21-4.77Z"/><path class="cls-26" d="m205.21,50.04c-2.37-.14-4.75-.29-7-.42.08-1.48.15-2.95.23-4.41,2.28.33,4.57.66,6.85.99.1.64.2,1.28.29,1.92-.13.64-.25,1.28-.38,1.92Z"/><path class="cls-1" d="m210.39,52.9c-.22-3.16,2-2.86,4.02-2.83,2-.3,3.99-.59,5.98-.89-.31.91-.61,1.82-.91,2.73-3.03.33-6.06.66-9.09.99Z"/><path class="cls-15" d="m549.48,53.08c-1.84.98-3.67,1.97-5.56,2.97-3.85-3.69-7.65-7.33-11.44-10.97,2.01-.01,4.03-.03,6.04-.04.66,0,1.31-.01,1.97-.02,1.59.42,3.21.72,4.74,1.29,1.15.42,2.18,1.18,3.27,1.78.32.98.63,1.95.95,2.93.01.68.02,1.37.04,2.05Z"/><path class="cls-19" d="m538.52,45.05c-2.01.01-4.03.03-6.04.04-1.66,0-3.33,0-4.99,0-.67-1.95-1.34-3.9-2.02-5.85,2.67-.03,5.34-.06,8-.09,1.68,1.97,3.36,3.94,5.04,5.91Z"/><path class="cls-19" d="m548.5,48.1c-1.08-.61-2.11-1.36-3.27-1.78-1.53-.56-3.16-.87-4.74-1.29,2.68-.31,5.36-.75,8.04-.75.32,0,.63,2.46.95,3.79-.33,0-.65.01-.98.03Z"/><path class="cls-4" d="m548.5,48.1c.33-.02.65-.02.98-.03-.01.99-.02,1.97-.03,2.96-.32-.98-.63-1.95-.95-2.93Z"/><path class="cls-26" d="m249.53,46.15c4.04-.32,8.08-.8,12.12-.8.72,0,1.45,1.98,2.42,3.42.39-3.64,1.42-6.31,5.61-4.71.64,2.31,1.29,4.62,1.93,6.94-4.38.28-8.76.55-13.14.83-.32-.26-.63-.52-.95-.78-.11-.63-.21-1.25-.14-.83-2.45.34-4.77.66-7.08.98-.26-1.68-.51-3.36-.77-5.03Z"/><path class="cls-12" d="m271.61,50.99c-.65-2.31-1.29-4.62-1.93-6.94,1.37.33,2.74.67,5.07,1.24-1.89-3.4-1.83-6.03.11-8.42,2.36,3.52,2.2,10.86-.31,14.21-.98-.03-1.96-.06-2.94-.09Z"/><path class="cls-8" d="m242.56,45.25c1.92.3,3.83.59,5.75.89-.02,1.28-.05,2.56-.08,3.84-.63.58-1.27,1.16-1.9,1.74-.98.13-1.95.25-2.93.38-.32-.35-.64-.7-.96-1.06,0,0,.12-.1.12-.1-.1-.98-.2-1.96-.3-2.94.1-.92.2-1.84.3-2.76Z"/><path class="cls-27" d="m248.24,49.98c.03-1.28.05-2.56.08-3.84.4,0,.81.01,1.21.02.26,1.68.51,3.35.77,5.03-.67.24-1.33.49-2,.73-.02-.65-.04-1.29-.06-1.94Z"/><path class="cls-1" d="m248.24,49.98c.02.65.04,1.29.06,1.94-.66-.06-1.31-.13-1.97-.19.63-.58,1.27-1.17,1.9-1.75Z"/><path class="cls-18" d="m257.52,51.04c.32.26.63.52.95.78-.32-.26-.63-.52-.95-.78Z"/><path class="cls-11" d="m89.33,44.05c-1.68.02-3.36.05-5.04.07-5.63-.06-11.27-.11-16.9-.17,0-.91,0-1.82.01-2.73,1-.03,1.99-.06,2.99-.09,1.32,0,2.63,0,3.95,0,.35,0,.7,0,1.05,0,2.15,0,4.33-.22,6.45.03,3.38.41,5.59-.7,6.52-4.05,4.8.35,9.61.64,14.4,1.08,1.24.11,2.44.67,3.67,1.03.08,2.5-1.13,2.83-3.46,2.67-3.47-.24-6.99.18-10.48.31-1.06.62-2.11,1.25-3.17,1.87Z"/><path class="cls-23" d="m67.41,41.21c0,.91,0,1.82-.01,2.73-8,0-16,.02-24,.03,0-.93.01-1.86.02-2.78,8,0,15.99.01,23.99.02Z"/><path class="cls-21" d="m43.42,41.19c0,.93-.01,1.86-.02,2.78-6.38,0-12.76,0-19.61,0,.69-1.27,1.13-2.08,1.58-2.9,6.02.04,12.03.08,18.05.11Z"/><path class="cls-18" d="m14.55,42.09c-.38.84-.76,1.68-1.14,2.52-.37-.22-.74-.45-1.11-.67,0-.72.02-1.43.02-2.15-.02-.35-.03-.7-.05-1.05.69.13,1.39.25,2.08.37.01.34.08.66.2.97Z"/><path class="cls-4" d="m14.35,41.12c-.69-.12-1.39-.25-2.08-.37.26-.68.52-1.36.78-2.03.44.43.88.86,1.32,1.28,0,.37,0,.75-.01,1.12Z"/><path class="cls-21" d="m307.39,83.16c4.05,1.37,8.1,2.73,12.15,4.1,0,0,.02.32.02.32,0,0-.13.47-.13.47-3.9-.61-7.8-1.22-11.69-1.83-.11-1.02-.22-2.04-.34-3.06Z"/><path class="cls-18" d="m327.93,86.1c.5-.03,1-.06,1.5-.09-.01.27-.03.54-.05.81-.48-.24-.96-.48-1.45-.71Z"/><path class="cls-17" d="m90.44,22.17c1.11-1.77,2.39-3.45,3.26-5.33.82-1.76,1.09-3.93,3.6-1.63,2.69,3.48,5.52,6.86,7.96,10.51.64.96.04,2.75.01,4.16-4.6.05-9.19.1-13.79.15-.35-2.62-.7-5.25-1.05-7.87Z"/><path class="cls-14" d="m91.49,30.04c4.6-.05,9.19-.1,13.79-.15.03,1.39.05,2.77.08,4.16-4.07.33-8.16,1.01-12.21.88-3.77-.12-4.3-2.17-1.66-4.89Z"/><path class="cls-3" d="m92.5,42.17c3.5-.14,7.01-.55,10.48-.31,2.32.16,3.53-.17,3.46-2.67.3-.12.61-.22.92-.3,1.32.37,2.64.74,3.96,1.11.65.34,1.3.67,1.95,1.01-.02.64-.04,1.27-.06,1.91-5.75,2.58-11.79.73-17.68,1.07-.97.06-2.02-1.18-3.03-1.81Z"/><path class="cls-15" d="m111.31,40c-1.32-.37-2.64-.74-3.96-1.11,1.26-.93,2.53-1.86,3.79-2.79,0,0,.42-.04.42-.04-.09,1.31-.17,2.63-.26,3.94Z"/><path class="cls-3" d="m111.29,35.08c.81,0,1.62-.02,2.42-.03-.16.37-.32.73-.48,1.1-.56-.03-1.11-.06-1.67-.09,0,0-.42.04-.42.04.05-.34.09-.68.14-1.02Z"/><path class="cls-28" d="m383.38,68.93c-4.01.32-8.01.64-12.02.96-.64.06-1.27.12-1.91.19-3.33-1-6.67-1.99-10-2.99-.34-.66-.67-1.33-1.01-1.99.68-1.02,1.36-2.04,2.03-3.06,1.09.72,2.12,1.58,3.29,2.15,4.36,2.14,10.36,1.11,12.69-2.1,1.66-1.86,3.26-3.78,6.2-3.45.17.02.53-1.67.81-2.56,1.01-1.25,2.01-2.5,3.16-3.91,2.67.61,3.83-1.05,3.85-4.04.63,0,1.26,0,1.89-.01-1.96,5.15,2.76,4.46,5.11,5.86,0,.37,0,.74-.01,1.11-9.35.57-13.7,4.86-14.08,13.85Z"/><path class="cls-23" d="m359.45,67.09c3.33,1,6.67,1.99,10,2.99-.35,4.98-.71,9.96-1.06,14.94-2.7,2.02-3.1-.45-3.96-2.03,2.47-8.15,1.82-9.97-4.98-14.07,0-.61,0-1.22,0-1.82Z"/><path class="cls-7" d="m113.24,36.15c.16-.37.32-.73.48-1.1.37,0,.73-.01,1.09-.02.07.41.14.82.22,1.23,0,0-.11.17-.11.17l-.14.27.28.21c.77,1.05,1.55,2.09,2.32,3.14-2.78.68-3.35,2.61-2.89,5.12-.06.29-.14.58-.24.86-.35-1.04-.7-2.08-1.04-3.11.02-.64.04-1.27.05-1.91,0-1.62-.02-3.24-.03-4.86Z"/><path class="cls-29" d="m292.52,22c-.02-1.16-.05-2.33-.06-3.49-.01-6.71,2.6-9.31,9.51-9.42,4.49-.07,8.97-.09,13.46-.13,6.81,0,13.62.01,20.43.02,2.53-.01,5.06-.03,7.59-.04,3.99-.03,7.99-.05,11.98-.08,1.28.43,2.56.86,3.84,1.3,2.11,2.97,4.22,5.93,6.33,8.9-.72,1.73-1.45,3.45-2.17,5.18-1.66,0-3.33,0-4.99,0-.33,0-.65,0-.98,0-4-.02-8.01-.03-12.01-.05-7.49-.02-14.98-.13-22.47-.03-2.52.03-5.04.56-7.56.87-3.67.09-7.33.18-11,.27-1.98-.1-3.97-.2-5.95-.31-1.97-1.02-3.93-2.05-5.9-3.07,0,0-.04.1-.04.1Z"/><path class="cls-14" d="m365.6,19.05c-2.11-2.97-4.22-5.93-6.33-8.9.72-.03,1.45-.06,2.17-.08.06.11.09.24.18.33.05.05.17.05.26.06-.14-.14-.28-.27-.42-.41-1.04-2.16-2.08-4.32-2.96-6.14,2.99-.62,5.97-1.24,8.96-1.86.68,2.67,1.36,5.34,2.05,8.01-1.26.14-2.51.29-5.08.58,2.31.83,3.18,1.14,4.05,1.46,1.17,1.43-2.26,4.67,1.93,4.91,0,.36,0,.72,0,1.09-1.6.31-3.21.63-4.81.94Z"/><path class="cls-7" d="m355.43,8.86c-3.99.03-7.99.05-11.98.08,2.82-2.65,8.96-2.69,11.98-.08Z"/><path class="cls-25" d="m397.46,55.08c0-.37,0-.74.01-1.11.97-.01,1.94-.02,2.91-.04.72.36,1.44.73,2.17,1.09l.15-.08c-.1.98-.2,1.97-.31,2.95-.3.06-.59.14-.88.22-1.35-1.01-2.7-2.03-4.05-3.04Z"/><path class="cls-6" d="m464.47,70.08c2.65,1.01,5.3,2.02,7.95,3.03-.31.66-.63,1.32-.94,1.98-1.67-.35-3.34-.69-5.01-1.04-2.67-1.32-5.33-2.64-8-3.95,0-.34,0-.69,0-1.03,1,0,2,0,3,0,1,.34,2,.67,3,1.01Z"/><path class="cls-15" d="m466.47,74.06c1.67.35,3.34.69,5.01,1.04.66.66,1.33,1.32,1.99,1.98-1.63-.05-3.26-.1-4.89-.16-.7-.95-1.41-1.91-2.11-2.86Z"/><path class="cls-4" d="m435.41,65.06c.34-.32.68-.63,1.02-.95-.34.32-.68.63-1.02.95Z"/><path class="cls-25" d="m179.55,51.79c-4.2,3.79-5.24,3.71-8.14-.68.34-.99.67-1.98,1.01-2.97,1.4-1.02,2.8-2.05,4.21-3.07.86.31,1.71.63,2.57.94.15,1.64.29,3.28.44,4.93-.07.28-.11.56-.09.85Z"/><path class="cls-26" d="m179.64,50.94c-.15-1.64-.29-3.28-.44-4.93,1.06-.36,2.12-.71,3.17-1.07.33.05.66.1.99.15.13,1.67.26,3.33.39,5-.45.34-.91.68-1.36,1.02,0,0-.49-.09-.49-.09,0,0-.49.05-.49.05-.59-.05-1.18-.1-1.78-.14Z"/><path class="cls-28" d="m172.42,48.14c-.34.99-.67,1.98-1.01,2.96,0,.31-.02.62-.07.92-1.92.31-3.85.62-5.77.93.04-.4.09-.8.14-1.19,1.33-.43,2.66-.87,4.08-1.33-.14-1.52-.26-2.94-.39-4.36h.43c.25-.04.5-.08.76-.12,0,0,.33.04.33.04l.33-.06c.39.74.78,1.47,1.16,2.21Z"/><path class="cls-9" d="m183.76,50.09c-.13-1.67-.26-3.33-.39-5,.96-.03,1.92-.05,2.88-.08,0,1.75.01,3.49.02,5.24-.58.32-1.15.65-1.73.97-.26-.38-.52-.75-.78-1.13Z"/><path class="cls-18" d="m183.76,50.09c.26.38.52.75.78,1.13-.71-.04-1.43-.07-2.14-.11.45-.34.91-.68,1.36-1.02Z"/><path class="cls-18" d="m179.64,50.94c.59.05,1.18.1,1.78.14-.62.24-1.25.47-1.87.71-.01-.29.02-.57.09-.85Z"/><path class="cls-22" d="m426.46,58.97c.34.68.68,1.36,1.02,2.04-5.34-.92-10.68-1.84-16.03-2.77-.66-.72-1.33-1.43-1.99-2.15,2.34.31,4.68.62,7.03.93,3.32.65,6.65,1.3,9.97,1.95Z"/><path class="cls-14" d="m409.46,56.09c.66.72,1.33,1.43,1.99,2.15-3.02-.12-6.04-.23-9.06-.35.1-.99.2-1.97.3-2.95.92.06,1.85.13,2.77.19.69.28,1.38.57,2.07.85.64.04,1.28.07,1.92.11Z"/><path class="cls-8" d="m114.26,46.03c.1-.28.18-.57.24-.86,2.52,0,5.05,0,7.89,0v4.89c-1.01.74-2.03,1.49-3.04,2.23-1.32.31-2.65.62-3.98.92,0,0-.08.08-.08.07-.32-.28-.63-.55-.95-.82,0,0,0-.31,0-.31.34-.12.67-.25,1.01-.37-.34-.25-.69-.49-1.03-.74l.08.09c-.06-1.01-.11-2.02-.17-3.02,0-.7.02-1.39.03-2.09Z"/><path class="cls-7" d="m114.23,48.12c.06,1.01.11,2.02.17,3.02-.98.02-1.96.04-2.94.07-.09-.28-.12-.56-.08-.84.95-.75,1.9-1.5,2.85-2.25Z"/><path class="cls-27" d="m234.28,45.17c-2.88-.02-5.77-.15-8.64-.01-1.75.09-3.49.59-5.23.91-.33,0-.66,0-1,0-1.62-.27-3.24-.54-4.86-.81.98-1.7,1.96-3.39,2.94-5.09,1.3,0,2.6,0,3.9,0,1.48.63,2.91,1.54,4.45,1.84,2.83.55,5.73.75,8.6,1.09-.06.69-.12,1.38-.17,2.07Z"/><path class="cls-8" d="m235.54,50.03c-.05-1-.1-2-.15-3,.41-.23.81-.46,1.22-.7l4.67.77c.09.31.17.61.24.92-.07.63-.15,1.27-.22,1.9-.55.14-1.09.29-1.64.43-1.37-.11-2.74-.22-4.11-.33Z"/><path class="cls-1" d="m235.54,50.03c1.37.11,2.74.22,4.11.33-.14.78-.27,1.56-.41,2.35-1.23-.89-2.47-1.78-3.7-2.67Z"/><path class="cls-1" d="m241.28,47.1c-1.56-.26-3.11-.51-4.65-.77-.4-.08-.82-.15-1.24-.23.67-.36,1.33-.73,2-1.09,1.3.06,2.61.13,3.91.19,0,.63-.01,1.27-.02,1.9Z"/><path class="cls-27" d="m239.24,52.7c.14-.78.27-1.57.41-2.35.55-.14,1.1-.29,1.64-.43.09.4.18.8.27,1.2-.05.33-.04.65.01.98-.78.2-1.56.4-2.34.6Z"/><path class="cls-11" d="m235.39,46.11c.42.07.83.15,1.24.23-.42.24-.83.47-1.23.7-.08-.31-.08-.62,0-.93Z"/><path class="cls-20" d="m241.58,52.11c-.05-.33-.06-.65-.01-.98.33-.06.66-.12,1-.18,0,0-.12.1-.12.1-.29.35-.58.71-.86,1.06Z"/><path class="cls-6" d="m381.5,11c-3.04.32-6.07.65-9.11.97-.3-.94-.54-1.9-.9-2.81-.91-2.31-2.51-5.19.85-6.27,1.79-.57,4.28,1.06,6.45,1.7-.18.58-.36,1.17-.54,1.75-1.13.11-2.25.23-4.62.47,2.38,1.01,3.76,2.12,4.93,1.93,1.08-.17,1.94-1.74,2.9-2.69,0,0-.01.01-.01.01.02,1.64.04,3.29.06,4.93Z"/><path class="cls-6" d="m368.48,12.11c-.87-.31-1.74-.63-4.05-1.46,2.56-.3,3.82-.44,5.08-.58.34.63.67,1.26,1.01,1.89-.68.05-1.35.1-2.03.15Z"/><path class="cls-6" d="m381.46,6.06c-.14-.14-.28-.27-.42-.41.09.03.21.02.25.08.08.1.1.23.15.35,0,0,.01-.01.01-.01Z"/><path class="cls-21" d="m358.44,24.22c1.66,0,3.33,0,4.99,0,0,1.28,0,2.55.01,3.83-9.81,0-19.64.33-29.43-.15-4.83-.24-9.46-1.18-13.59,2.17-.66,0-1.33-.02-1.99-.02-5-.67-10-1.33-15-2-2.54-.12-5.08-.25-7.66-.37.67,5.32,1.8,5.92,7.68,4.35h0c.98.35,1.96.7,2.94,1.04-.32.67-.64,1.33-.96,2-.66.03-1.32.06-1.98.09l-13.01.95c0-.37,0-.73,0-1.1.71-4.37,1.42-8.75,2.13-13.12,1.97,1.02,3.93,2.05,5.9,3.07,1.98.1,3.97.2,5.95.31,3.67-.09,7.33-.18,11-.27.55.33,1.1.95,1.65.95,8.64.08,17.29.13,25.93.01.83-.01,1.64-1.17,2.46-1.8,4,.02,8.01.03,12.01.05.16.41.32.81.49,1.22.16-.4.33-.81.49-1.21Z"/><path class="cls-25" d="m290.43,35.02c0,.37,0,.73,0,1.1.07.92.15,1.84.22,2.76-.15.13-.3.25-.45.38-3.71-.75-2.56,2.17-2.96,3.93-2.64-.07-5.27-.14-7.91-.2-.25-1.65-.51-3.31-.76-4.96,3.36-1.01,6.73-2.02,10.1-3.03.59,0,1.17.02,1.76.02Z"/><path class="cls-3" d="m288.68,34.99c-3.37,1.01-6.73,2.02-10.1,3.03-.09-1.32-.17-2.64-.26-3.95,3.51-.4,7.28-3.63,10.35.92Z"/><path class="cls-8" d="m12.31,41.79c0,.72-.02,1.43-.02,2.15-1.64.04-3.27.07-4.91.11,1.36-.8,2.72-1.6,4.08-2.4.29,0,.58.05.86.14Z"/><path class="cls-25" d="m122.38,50.07v-4.89c-2.84,0-5.37,0-7.89,0-.47-2.51.11-4.44,2.89-5.12,4.34,0,8.68.02,13.02.03,6.05,0,12.1-.06,18.14.06.9.02,1.78.89,2.66,1.37-.84.55-1.68,1.09-2.52,1.64-1.8.02-3.6.03-5.4.05-.02.9-.05,1.79-.07,2.69.26.74.51,1.48.77,2.23.2-.37.39-.74.59-1.11,1.92.36,3.85.72,5.77,1.08.44,1.25.89,2.5,1.33,3.75-2.36.35-4.72.69-7.08,1.03-.13-.63-.26-1.26-.22-1.06-1.51,0-2.72,0-3.93,0,.59-.93,1.19-1.87,1.79-2.81-1.1-1.28-2.2-2.56-3.3-3.84-.55,1.66-1.1,3.32-1.64,4.98-3.6,4.06-4.56,4.08-7.83.14-.34-.06-.69-.12-1.03-.19.23-3.38-.82-5.81-4.87-6.32-.14,2.19-.27,4.29-.4,6.39-.26.01-.52-.02-.77-.09Z"/><path class="cls-8" d="m137.29,50.14c.55-1.66,1.1-3.32,1.64-4.98,1.1,1.28,2.2,2.56,3.3,3.84-1.38.69-2.75,1.37-4.13,2.06-.27-.31-.54-.61-.81-.92Z"/><path class="cls-1" d="m138.1,51.06c1.38-.69,2.75-1.37,4.13-2.06-.6.94-1.19,1.87-1.79,2.81-.78-.25-1.56-.5-2.34-.74Z"/><path class="cls-15" d="m426.46,58.97c-3.32-.65-6.65-1.3-9.97-1.95-2.16-3.43-4.33-6.86-6.49-10.29-.36.3-.71.59-1.07.89-.82-.86-1.64-1.71-2.46-2.57,5.03-2.77,7.8.91,10.25,4.06,1.99,2.56,3.15,3.73,6.23,1.29,1.55-1.23,4.31-.93,6.52-1.32,3.47,4.77,7.27,8.14,14.01,8.22,7.98.1,14.14,4.56,18,11.78-1,0-2,0-3,0-7.6-2.79-15.15-5.71-22.82-8.3-2.93-.99-6.13-1.22-9.2-1.8Z"/><path class="cls-26" d="m157.32,44.1c2.7.08,5.41.17,8.11.25-.02.32,0,.63.05.95-.03.25-.05.5-.06.75-1.35,1.97-2.7,3.94-4.05,5.92-1.31,0-2.61,0-3.92,0-.06-1.99-.13-3.97-.19-5.96l.06-1.91Z"/><path class="cls-8" d="m151.67,51.82c-.44-1.25-.89-2.5-1.33-3.75.69-3.69,2.93-3.44,5.56-2.17-.12,2.61-.36,5.15-3.54,5.95h-.35s-.35-.02-.35-.02Z"/><path class="cls-25" d="m152.37,51.84c3.18-.79,3.41-3.34,3.54-5.95.19-.03.37-.06.56-.08.25.13.51.2.79.19.06,1.99.13,3.97.19,5.96-1.69-.04-3.38-.08-5.07-.12Z"/><path class="cls-18" d="m161.36,51.97c1.35-1.97,2.7-3.94,4.05-5.92-.01,1.69-.02,3.37-.04,5.06-.31.05-.62.12-.91.23-1.03.21-2.07.42-3.1.63Z"/><path class="cls-7" d="m164.46,51.34c.3-.11.6-.19.91-.23.12.22.23.43.34.65-.05.4-.09.8-.14,1.19-.39.72-.78,1.45-1.18,2.17.02-1.26.04-2.52.07-3.79Z"/><path class="cls-25" d="m355.46,42.02c0-.99-.01-1.98-.02-2.96,4.34-.28,8.69-.57,13.03-.85,6.81,0,13.62-.04,20.42.01,1.92.01,3.81.26,3.5-2.61.35-.2.71-.39,1.06-.59.65,1.34,1.3,2.68,1.95,4.01.01.72.03,1.44.04,2.15-.67.94-1.33,1.89-2,2.83-.97-.57-1.93-1.61-2.91-1.63-9.7-.2-19.4-.24-29.1-.32-1.99-.02-3.99-.04-5.98-.05Z"/><path class="cls-26" d="m368.48,38.21c-4.34.28-8.69.57-13.03.85-5.65-.29-11.31-.59-16.96-.88,0-.8.01-1.59.02-2.38l.39-.14s.39.15.39.15c.7-.04,1.4-.08,2.1-.12,1.61-.19,3.21-.52,4.82-.56,11.02-.29,22.05-.53,33.07-.78.11.3.08.6-.07.87-2.37.29-4.79.41-7.11.96-1.29.31-2.42,1.33-3.62,2.04Z"/><path class="cls-6" d="m339.29,35.81l-.39-.15s-.39.14-.4.14c-5.35-.23-10.71-.46-16.06-.69-.32-.66-.64-1.33-.95-1.99,19.34.04,38.68.07,58.03.11-.08.37-.16.74-.24,1.11-11.02.26-22.05.49-33.07.78-1.61.04-3.22.37-4.82.56-.7.04-1.4.08-2.1.12Z"/><path class="cls-18" d="m379.52,33.23c-19.34-.04-38.68-.07-58.03-.11-.54-.07-1.08-.14-1.62-.21.18-.29.37-.58.55-.87,15.99-.01,31.99-.02,47.98-.03,3.71-.01,7.42-.02,11.13-.03,2.61.35,5.22.69,7.83,1.04-2.62.07-5.23.15-7.85.22Z"/><path class="cls-8" d="m368.48,38.21c1.2-.7,2.32-1.73,3.62-2.04,2.31-.55,4.73-.66,7.11-.96,2.42-.09,4.84-.18,7.25-.27.67.09,1.33.17,2,.26,1.32.14,2.63.28,3.95.41.31,2.86-1.58,2.62-3.5,2.61-6.81-.05-13.61-.02-20.42-.01Z"/><path class="cls-21" d="m387.37,33.01c-2.61-.35-5.22-.69-7.84-1.04.33-1.74.5-3.52,1.04-5.2.47-1.49,1.17-3.61,2.88-.71.36.68.72,1.36,1.07,2.04,2.3,1.14,4.6,2.29,7.64,3.8-1.95.45-3.37.78-4.79,1.1Z"/><path class="cls-3" d="m395.41,39.05c-.65-1.34-1.3-2.68-1.95-4.01,1.28.67,2.55,1.33,3.83,2,.43.58.86,1.15,1.3,1.73-1.06.09-2.12.19-3.18.28Z"/><path class="cls-26" d="m398.59,38.76c-.43-.58-.86-1.15-1.3-1.73.11-.3.19-.61.26-.93.11-.36.22-.72.33-1.08.52-.39,1.04-.78,1.56-1.17.28,1.71.56,3.42.84,5.14-.56-.07-1.13-.15-1.69-.23Z"/><path class="cls-25" d="m388.46,35.21c-.67-.09-1.33-.17-2-.26.67.09,1.33.17,2,.26Z"/><path class="cls-3" d="m397.89,35.02c-.11.36-.22.72-.33,1.08.11-.36.22-.72.33-1.08Z"/><path class="cls-17" d="m361,69.87c5.25,3.42,5.69,5.55,3.55,12.74-.07.24-.22.46-.43.6-7.35,5.13-15.66,2.27-23.57,2.66-.59.03-1.1-.4-1.15-.99-.08-.96-.14-1.94-.59-2.67-2.4-3.84-2.07-7.34.55-10.73.17-.22.44-.37.72-.41,4.38-.61,8.76-1.21,13.15-1.82.6-.08,1.15.34,1.23.94.34,2.78.68,5.56,1.02,8.37.13,1.05,1.56,1.33,2.04.39,1.17-2.29.97-4.97.91-7.63l2.58-1.46Z"/><path class="cls-11" d="m354.3,69.1c-4.89.68-9.79,1.35-14.68,2.03-2.02,0-4.04,0-6.06,0-.57-4.66,3.31-4.1,5.91-5.03.65-.03,1.3-.05,1.94-.08,0,0-.03-.01-.03-.01.69-.32,1.39-.65,2.08-.97,2.34.03,4.69.2,7.01.04,2-.14,3.98-.67,5.96-1.02l2,1.03c.34.66.67,1.33,1.01,1.99,0,.61,0,1.22,0,1.82-.34.05-.68.11-1.02.16-1.38,0-2.75.02-4.13.03Z"/><path class="cls-1" d="m279.34,42.98c2.64.07,5.27.14,7.91.2-.74,2.23-1.49,4.46-2.23,6.68-.29.44-.57.88-.86,1.31-.09.15-.21.29-.36.41-.34-.29-.68-.58-1.02-.87-.39-.37-.77-.73-1.16-1.09-.99-.54-1.97-1.08-2.96-1.63.23-1.67.45-3.34.68-5.01Z"/><path class="cls-27" d="m278.66,47.99c.99.54,1.97,1.09,2.96,1.63-1.11-.03-2.21-.06-3.31-.09.12-.51.24-1.02.35-1.54Z"/><path class="cls-13" d="m383.45,26.07c-1.72-2.9-2.41-.78-2.88.71-.53,1.67-.71,3.46-1.04,5.2-3.71,0-7.42.02-11.13.03-1.65-1.31-3.31-2.63-4.96-3.94,0-1.28,0-2.55-.01-3.83.72-1.73,1.45-3.45,2.17-5.18,1.6-.31,3.21-.63,4.81-.94,1.03.64,2.05,1.29,3.08,1.93,2.98-.01,5.96-.02,8.95-.04,1.22.99,2.43,1.99,3.55,2.9-.83,1.03-1.68,2.1-2.54,3.17Z"/><path class="cls-19" d="m382.44,20c-2.98.01-5.96.02-8.95.04,1.63-.48,3.25-.96,4.32-1.28.16-1.08.27-1.83.5-3.33-2.52.19-5.18.39-7.84.59,2.24-.68,4.45-1.68,6.74-1.93,1.69-.18,3.49.62,5.24.98,3.06,1.65.03,3.29-.01,4.93Z"/><path class="cls-8" d="m123.16,50.16c.13-2.1.26-4.2.4-6.39,4.05.51,5.11,2.94,4.87,6.32-1.76.02-3.51.05-5.27.07Z"/><path class="cls-23" d="m84.42,38.1c.64.03,1.28.05,1.92.08-.64-.03-1.28-.05-1.92-.08Z"/><path class="cls-16" d="m75.4,41.1c-.35,0-.7,0-1.05,0,.35,0,.7,0,1.05,0Z"/><path class="cls-21" d="m370.48,16.03c2.66-.2,5.32-.4,7.84-.59-.23,1.5-.34,2.25-.5,3.33-1.07.32-2.7.8-4.32,1.28-1.03-.64-2.05-1.29-3.08-1.93,0-.36,0-.72,0-1.09.01-.33.04-.66.07-1Z"/><path class="cls-11" d="m295.48,54.04c.65,1.01,1.31,2.02,1.96,3.03-1-.33-2.01-.66-3.01-.99.35-.68.7-1.36,1.05-2.04Z"/><path class="cls-6" d="m398.59,38.76c.57.08,1.13.15,1.69.23,1.09-.19,2.18-.38,3.27-.56-.08.57-.16,1.15-.24,1.72-1.98,0-3.96,0-5.94-.01-.64.36-1.28.72-1.92,1.07-.01-.72-.03-1.44-.04-2.16,1.06-.09,2.12-.19,3.18-.28Z"/><path class="cls-11" d="m282.77,50.71c.34.29.68.59,1.02.87-.34-.29-.68-.58-1.02-.87Z"/><path class="cls-17" d="m111.46,51.21c.98-.02,1.96-.04,2.94-.07,0,0-.08-.1-.08-.1,0,.37.01.74.02,1.11,0,0,0,.31,0,.31-.96-.42-1.92-.84-2.88-1.26Z"/><path class="cls-15" d="m525.47,39.23c.67,1.95,1.34,3.9,2.02,5.85-.87.21-1.77.68-2.6.57-3.5-.43-6.96-1.41-10.45-1.48-3.53-.07-5.36-1.12-4.97-4.85,5.34-.03,10.67-.06,16.01-.09Z"/><path class="cls-19" d="m406.46,45.05c.82.86,1.64,1.71,2.46,2.57.36-.3.71-.59,1.07-.89,2.16,3.43,4.33,6.86,6.49,10.29-2.34-.31-4.68-.62-7.03-.93-.64-.04-1.28-.07-1.93-.11-.69-.28-1.38-.57-2.07-.85-.92-.06-1.85-.13-2.77-.19,0,0-.15.08-.15.08-.3-1.32-.6-2.65-.9-3.97,0-.99,0-1.97.01-2.96.61-1.01,1.22-2.02,1.83-3.04.99,0,1.98,0,2.97,0Z"/><path class="cls-14" d="m403.49,45.06c-.61,1.01-1.22,2.02-1.83,3.04-1.43-2.65-2.86-5.31-4.28-7.96,1.98,0,3.96,0,5.94.01.06,1.64.11,3.28.17,4.91Z"/><path class="cls-8" d="m322.44,35.11c5.35.23,10.71.46,16.06.69,0,.79-.01,1.59-.02,2.38-11.67.23-23.34.47-35,.7,0-1.24-.02-2.47-.03-3.71.66-.03,1.32-.06,1.98-.09,5.67.01,11.34.02,17.01.03Z"/><path class="cls-3" d="m355.46,42.02c1.99.02,3.99.04,5.98.05,0,1.02.02,2.04.02,3.06-1.34.31-2.67.62-4.01.94l-15-1.01c-.01-.33-.02-.67-.03-1,4.35-.68,8.69-1.36,13.04-2.04Z"/><path class="cls-26" d="m303.45,35.17c0,1.24.02,2.47.03,3.71-4.27,0-8.55,0-12.82,0-.07-.92-.15-1.84-.22-2.76,4.34-.32,8.68-.63,13.01-.95Z"/><path class="cls-18" d="m320.4,43.99c0-.61,0-1.23,0-1.84,5.02-.03,10.04-.06,15.06-.09-.03.65-.06,1.29-.08,1.94-4.99,0-9.98,0-14.97-.01Z"/><path class="cls-20" d="m336.44,42.07c.36-.26.72-.52,1.08-.78l.28.39c-.45.13-.91.26-1.36.38,0,0,0,0,0,0Z"/><path class="cls-20" d="m341.42,66.03c-.65.03-1.3.05-1.94.08.65-.03,1.3-.05,1.94-.08Z"/><path class="cls-3" d="m333.45,49.12c-4.99,0-9.98,0-14.97,0-.09-.55-.19-1.11-.28-1.66,5.15-.06,10.52-2.13,15.25,1.66Z"/><path class="cls-9" d="m342.46,45.07c5,.34,10,.67,15,1.01,1.82.6,3.65,1.21,5.47,1.81-.05.39-.1.77-.15,1.16h-14.13c6.34,1.02,12.65,1.18,18.95.96,3.21-.11,4.17,1.27,3.91,4.12l-6.09,2.08c.19.64.37,1.27.56,1.91,2.54-.57,5.08-1.14,7.5-1.68-.34.83-.7,1.7-1.07,2.58v.03c-.34.36-.67.72-1.01,1.08,0,.32.01.63.05.95,0,0,0,0,0,0l-10.97.96c-.68,1.02-1.35,2.04-2.03,3.06-.67-.34-1.33-.69-2-1.03-.54-1.51-1.09-3.02-1.71-4.76-1.62.49-3.16,1.33-4.69,1.32-1.23-.01-2.45-1.07-3.67-1.66-.76-3.01-1.51-6.01-2.27-9.02.52-.28,1.04-.55,1.56-.83-1.67-.48-3.35-.96-4.91-1.41.49-.76,1.1-1.7,1.7-2.64Z"/><path class="cls-28" d="m346.37,58.96c1.22.59,2.44,1.64,3.67,1.66,1.53.02,3.07-.82,4.69-1.32.63,1.74,1.17,3.25,1.71,4.76-1.99.36-3.96.88-5.96,1.02-2.32.16-4.67,0-7.01-.04.62-2.2-1.79-5.83,2.9-6.09Z"/><path class="cls-28" d="m335.5,48.01c.44.14.88.28,1.32.43-.09.13-.24.37-.26.37-.39-.21-.77-.45-1.16-.68,0,0,.1-.11.1-.11Z"/><path class="cls-22" d="m130.4,40.08c-4.34,0-8.68-.02-13.02-.03-.77-1.05-1.55-2.09-2.32-3.14.1-.21.05-.37-.15-.49,0,0,.11-.17.11-.17,2.78-.1,5.56-.19,8.34-.29,1.77.51,3.53,1.03,5.3,1.54.37-.45.74-.91,1.1-1.36.21,1.31.42,2.62.63,3.93Z"/><path class="cls-25" d="m170.59,45.95c-.25.04-.51.08-.76.13-.5-1.11-.99-2.22-1.48-3.33-.03-.17-.03-.34,0-.51.01-.42.03-.84.04-1.26,1.68-2.31,3.35-4.61,5.03-6.92.33.33.66.66.99,1,3.83,2.96-1,2.75-1.64,3.75.67,1.31,1.16,2.27,1.65,3.23-1.02.36-2.04.72-3.06,1.08-.25.94-.51,1.88-.76,2.82Z"/><path class="cls-18" d="m144.57,47c-.2.37-.39.74-.59,1.11-.26-.74-.51-1.48-.77-2.23.02-.9.05-1.79.07-2.69,1.8-.02,3.6-.03,5.4-.05-1.08.67-2.17,1.35-3.26,2.02-.3.31-.61.63-.91.94-.02.3,0,.6.05.89Z"/><path class="cls-25" d="m165.06,36.19l3.56-.28c.05.56.11,1.12.16,1.68-1.13.15-2.25.3-3.38.45l-.34-1.86Z"/><path class="cls-1" d="m168.35,42.75c.49,1.11.99,2.22,1.48,3.33,0,0-.42-.01-.42-.01-1.31-.26-2.62-.52-3.93-.78-.05-.32-.07-.63-.05-.95.97-.53,1.94-1.06,2.92-1.6Z"/><path class="cls-21" d="m157.25,46.01c-.28,0-.54-.05-.79-.19.29-.57.57-1.15.85-1.72-.02.64-.04,1.27-.06,1.91Z"/><path class="cls-9" d="m168.39,40.99c-.01.42-.03.84-.04,1.26.01-.42.03-.84.04-1.26Z"/><path class="cls-25" d="m144.52,46.11c.3-.31.61-.63.91-.94-.3.31-.61.63-.91.94Z"/><path class="cls-14" d="m174.41,42.05c-.49-.96-.98-1.92-1.65-3.23.64-1.01,5.47-.8,1.64-3.75,1.66,0,3.32,0,4.98,0-.06.82-.3,2.32-.17,2.35,4.45,1.13,2.94,4.69,3.15,7.52-1.06.36-2.12.71-3.17,1.07-.86-.31-1.72-.63-2.57-.94-.04-.65-.07-1.29-.11-1.94h5.12c-2.08-1.57-3.2-2.41-4.32-3.25-.3.72-.61,1.44-.91,2.16-.66,0-1.33.01-1.99.02Z"/><path class="cls-27" d="m205.3,46.2c-2.28-.33-4.57-.66-6.85-.99-1.32-.37-2.64-.74-3.96-1.11-.2-.24-.39-.48-.59-.72,3.28-.4,6.56-.97,9.84-1,.51,0,1.04,2.49,1.56,3.82Z"/><path class="cls-8" d="m214.56,45.26c1.62.27,3.24.54,4.85.81.33.63.66,1.27.98,1.9,0,.41,0,.81,0,1.22-2,.3-3.99.59-5.99.89-.01-.36-.03-.73-.04-1.09.07-1.24.13-2.48.2-3.72Z"/><path class="cls-23" d="m183.37,34.73c.73,1.08,1.47,2.16,2.2,3.24-.36.26-.72.52-1.08.78-.78-1.05-1.55-2.09-2.33-3.14l1.21-.88Z"/><path class="cls-22" d="m228.41,32.07c-.32.5-.63,1-.95,1.51.32-.5.63-1,.95-1.51Z"/><path class="cls-22" d="m227.59,35.62c.29.46.58.92.88,1.38-.46.52-.92,1.05-1.39,1.57.17-.99.34-1.97.51-2.96Z"/><path class="cls-16" d="m241.28,47.1c0-.63.01-1.27.02-1.9.16-.42.32-.84.47-1.26.26.44.53.87.79,1.31-.1.92-.2,1.84-.3,2.76-.25.03-.5.03-.74.02-.07-.31-.15-.62-.24-.92Z"/><path class="cls-1" d="m220.4,47.97c-.33-.63-.66-1.27-.98-1.9.33,0,.66,0,1,0,0,.63,0,1.27-.01,1.9Z"/><path class="cls-11" d="m241.52,48.03c.25.01.5,0,.74-.02.1.98.2,1.96.3,2.94-.33.06-.66.12-1,.18-.09-.4-.18-.8-.27-1.2.07-.63.15-1.27.22-1.9Z"/><path class="cls-26" d="m113.24,36.15c0,1.62.02,3.24.03,4.86-.65-.34-1.3-.67-1.95-1.01.09-1.31.17-2.63.26-3.94.56.03,1.11.06,1.67.09Z"/><path class="cls-27" d="m361.47,45.14c0-1.02-.02-2.04-.02-3.06,9.7.08,19.4.12,29.1.32.98.02,1.94,1.07,2.91,1.64-.36,1.36-.73,2.71-1.09,4.07-.63,0-1.26,0-1.89,0-1-.02-2-.04-3-.05-1.91-.67-3.8-1.8-5.75-1.94-6.74-.51-13.5-.68-20.26-.98Z"/><path class="cls-9" d="m387.48,48.06c1,.02,2,.04,3,.05-.02,2.99-1.18,4.64-3.85,4.04-1.14,1.42-2.15,2.67-3.16,3.91-2.62,2.32-5,3.06-7.2-.63-.44-.75-1.86-.91-2.83-1.35-.47-3.39,1.31-3.9,4.31-4.16,3.24-.29,7.21,2.28,9.73-1.86Z"/><path class="cls-18" d="m392.37,48.11c.36-1.36.73-2.71,1.09-4.07.67-.95,1.33-1.89,2-2.83.64-.36,1.28-.71,1.92-1.07,1.43,2.65,2.85,5.31,4.28,7.96,0,.99,0,1.97-.01,2.96-.42.96-.84,1.92-1.27,2.88-.97.01-1.94.03-2.91.04-2.34-1.4-7.07-.71-5.1-5.86Z"/><path class="cls-23" d="m360.48,62.03c3.66-.32,7.32-.64,10.97-.96.12.07.23.14.35.2-.11-.07-.23-.14-.34-.21-.03-.32-.05-.63-.05-.95.34-.36.67-.72,1.01-1.08,0,0,0-.03,0-.03,1.35,1.02,2.7,2.04,4.04,3.07-2.32,3.21-8.32,4.25-12.69,2.1-1.17-.57-2.2-1.43-3.29-2.15Z"/><path class="cls-21" d="m376.46,62.08c-1.35-1.02-2.69-2.04-4.04-3.07.36-.88.73-1.76,1.07-2.58-2.42.54-4.96,1.11-7.5,1.68-.19-.64-.37-1.27-.56-1.91,2.03-.69,4.06-1.39,6.09-2.08.64-.01,1.29-.03,1.93-.04.97.43,2.39.6,2.83,1.35,2.2,3.69,4.58,2.95,7.2.63-.27.89-.64,2.58-.81,2.56-2.95-.33-4.54,1.59-6.2,3.45Z"/><path class="cls-15" d="m114.92,36.43c.2.12.25.28.15.49,0,0-.28-.22-.28-.22l.14-.27Z"/><path class="cls-23" d="m345.45,24.17c-.82.63-1.63,1.79-2.46,1.8-8.64.12-17.28.06-25.93-.01-.55,0-1.1-.62-1.65-.95,2.52-.3,5.04-.83,7.56-.87,7.49-.1,14.98,0,22.47.03Z"/><path class="cls-23" d="m304.41,25.27c-1.98-.1-3.97-.2-5.95-.31,1.98.1,3.97.2,5.95.31Z"/><path class="cls-12" d="m358.44,24.22c-.16.4-.33.81-.49,1.21-.16-.41-.32-.81-.49-1.22.33,0,.65,0,.98,0Z"/><path class="cls-16" d="m361.46,10.06c.14.14.28.27.42.41-.09-.02-.21-.01-.26-.06-.08-.09-.12-.22-.18-.33,0,0,.01-.01.01-.01Z"/><path class="cls-28" d="m400.38,53.93c.42-.96.84-1.92,1.27-2.88.3,1.32.6,2.65.9,3.97-.72-.36-1.44-.73-2.17-1.09Z"/><path class="cls-18" d="m176.52,43.13c.04.65.07,1.29.11,1.94-1.4,1.02-2.8,2.05-4.21,3.07-.39-.73-.78-1.47-1.16-2.21.03-.93.06-1.87.1-2.8,1.02-.36,2.04-.72,3.06-1.08.67,0,1.33-.01,1.99-.02.04.37.07.73.11,1.1Z"/><path class="cls-8" d="m165.48,45.3c1.31.26,2.62.52,3.93.78.13,1.42.25,2.84.39,4.36-1.42.46-2.75.9-4.08,1.33-.11-.22-.22-.44-.34-.65.01-1.69.02-3.37.04-5.06.01-.25.03-.5.06-.76Z"/><path class="cls-6" d="m171.35,43.13c-.03.93-.06,1.87-.1,2.8,0,0-.33.06-.33.06,0,0-.34-.04-.33-.04.26-.94.51-1.88.76-2.82Z"/><path class="cls-22" d="m405.46,55.13c.69.28,1.38.57,2.07.85-.69-.29-1.38-.57-2.07-.85Z"/><path class="cls-4" d="m114.33,52.16c0-.37-.01-.74-.02-1.11.34.25.69.49,1.03.74-.34.12-.67.25-1.01.37Z"/><path class="cls-23" d="m363.44,28.06c1.65,1.31,3.31,2.63,4.96,3.94-15.99.01-31.99.02-47.98.03,0-.65,0-1.3,0-1.95,4.13-3.35,8.76-2.41,13.59-2.17,9.79.48,19.62.15,29.43.15Z"/><path class="cls-13" d="m322.44,35.11c-5.67-.01-11.34-.02-17.01-.03.32-.67.64-1.33.96-2,.17-.51.34-1.01.51-1.52-1.15.16-2.3.32-3.45.48,0,0,0,0,0,0,0-1.32-.01-2.65-.02-3.98,5,.67,10,1.33,15,2-.06,1.22-.13,2.44-.19,3.67.54-.27,1.09-.54,1.63-.82.54.07,1.08.14,1.62.21.32.66.64,1.33.95,1.99Z"/><path class="cls-23" d="m303.43,28.06c0,1.33.01,2.65.02,3.98-5.88,1.57-7.01.97-7.68-4.35,2.57.12,5.11.25,7.66.37Z"/><path class="cls-6" d="m319.87,32.91c-.54.27-1.09.54-1.63.82.06-1.22.13-2.44.19-3.67.66,0,1.33.02,1.99.02,0,.65,0,1.3,0,1.95-.18.29-.37.58-.55.87Z"/><path class="cls-23" d="m303.45,32.04c1.15-.16,2.3-.32,3.45-.48-.17.51-.34,1.01-.51,1.52-.98-.35-1.96-.69-2.94-1.04Z"/><path class="cls-21" d="m143.28,43.2c-.02.9-.04,1.79-.07,2.69.02-.9.04-1.79.07-2.69Z"/><path class="cls-8" d="m339.29,35.81c.7-.04,1.4-.08,2.1-.12-.7.04-1.4.08-2.1.12Z"/><path class="cls-4" d="m354.3,69.1c1.38,0,2.75-.02,4.13-.03-.24,4.23,1.05,8.85-2.66,12.06-.5-4.07-.98-8.05-1.47-12.03Z"/><path class="cls-13" d="m373.44,54.09c-.64.01-1.29.03-1.93.04.26-2.85-.69-4.23-3.91-4.12-6.3.22-12.6.06-18.95-.96h14.13c.05-.39.1-.77.15-1.16-1.82-.6-3.65-1.21-5.47-1.81,1.34-.31,2.67-.62,4.01-.94,6.75.3,13.52.47,20.26.98,1.95.15,3.84,1.27,5.75,1.94-2.52,4.15-6.49,1.58-9.73,1.86-3,.27-4.78.77-4.31,4.16Z"/><path class="cls-21" d="m372.41,59.04c-.34.36-.67.72-1.01,1.08.34-.36.67-.72,1.01-1.08Z"/><path class="cls-25" d="m176.52,43.13c-.04-.37-.07-.73-.11-1.1.3-.72.61-1.44.91-2.16,1.12.84,2.24,1.69,4.32,3.25h-5.12Z"/><path class="cls-9" d="m371.45,61.07c.11.07.23.14.34.21-.12-.07-.23-.14-.35-.2,0,0,0,0,0,0Z"/><path class="cls-14" d="m397.37,40.13c-3.21-2.91.65-4.58-3.68-4.71l-6.49-.2-7.92-.88-54.54-1.15c-1.12-.02-1.67,3.36-.84,4.11h0s-32.61.85-32.61.85h0c-.63,2.63-.78,5.35-.43,8.04l.63,4.88h0c-.52,2.79.3,5.67,2.23,7.77l.98,1.06,2.88,20.15,4.84.02,17.32,3.88,6.86,1.26c.4.07.78-.21.83-.61l.55-4.68c.64-5.39,4.58-9.81,9.87-11.05l2.74-.64c2.55-.6,5.16-.88,7.78-.84h0c2.48.04,4.96.36,7.37.94l.8.19c3.56.86,7.04,2.05,10.39,3.53l2.46,1.09,14-2.21,3.9-10.29,10.18-3.56v-1.11s-5.98-1.5-5.98-1.5l.97-7.46.93-4.88,4-2Z"/><polygon class="cls-27" points="298.36 81.07 290.07 135.92 292.42 138.54 295.21 137.75 316.49 145.43 320.72 144.88 324.13 139.29 326.44 126.17 328.29 123.06 326.37 120.07 326.38 119.12 329.31 116.41 328.98 112.2 330.35 91.97 329.3 87.01 297.02 78.09 298.36 81.07"/><path class="cls-19" d="m330.48,86.4c-.71,4.44-1.24,8.93-2.19,13.33-1.47,6.84-3.23,13.62-4.87,20.42-.68-.69-1.37-1.38-2.05-2.07-.03-.32-.03-.64.01-.96,2.9-1.28,3.84-3.2,1.94-6.03l.15-2.94c.28-1.02.56-2.05.84-3.07.37-5.38.74-10.76,1.11-16.14-.69-.07-1.38-.14-2.06-.21-.39,3.09-.78,6.18-1.17,9.27-.61-.31-1.22-.62-1.83-.93v-8.13c-2.33-.93-4.14-1.65-5.95-2.36,0,0-.02-.31-.02-.31,2.67-.36,5.34-.72,8-1.08,0,0,.4-.08.4-.08.48.24.96.48,1.45.71l5.1-.7c.38.43.75.85,1.13,1.28Z"/><path class="cls-12" d="m297.51,95.16c.66-3.5,1.22-7.03,2.03-10.5.28-1.19,1.16-2.24,1.76-3.35-.56,4.28-1.12,8.55-1.67,12.83-1.06,3.66-2.13,7.32-3.19,10.97.36-3.32.72-6.63,1.08-9.95Z"/><path class="cls-12" d="m293.57,117.32c.66-3.5,1.22-7.03,2.03-10.5.28-1.19,1.16-2.24,1.76-3.35-.56,4.28-1.12,8.55-1.67,12.83-1.06,3.66-2.13,7.32-3.19,10.97.36-3.32.72-6.63,1.08-9.95Z"/><path class="cls-12" d="m316.36,116.12c1.22-5.98,2.26-12.01,3.75-17.93.51-2.03,2.14-3.82,3.26-5.71-1.03,7.3-2.06,14.6-3.09,21.9-1.97,6.25-3.94,12.49-5.91,18.74.66-5.66,1.33-11.33,1.99-16.99Z"/><path class="cls-12" d="m321.68,122.62c1.33-7.22,2.47-14.48,4.11-21.62.56-2.45,2.35-4.6,3.58-6.89-1.13,8.8-2.26,17.6-3.39,26.41-2.16,7.53-4.32,15.06-6.48,22.59.73-6.83,1.45-13.66,2.18-20.49Z"/><path class="cls-12" d="m308.42,108.7c1.22-5.98,2.26-12.01,3.75-17.93.51-2.03,2.14-3.82,3.26-5.71-1.03,7.3-2.06,14.6-3.09,21.9-1.97,6.25-3.94,12.49-5.91,18.74.66-5.66,1.33-11.33,1.99-16.99Z"/><polygon class="cls-12" points="310.21 113.12 303.48 139.06 306.9 111.76 311.75 92.47 312.94 85.21 320.98 85.77 317.84 87.93 315.96 88.05 310.21 113.12"/><polygon class="cls-12" points="305.18 85.77 302.86 103.47 300.18 123.89 298.46 133.11 292.56 133.11 292.46 136.45 298.46 135.15 301.44 133.11 307.39 83.16 305.47 82.9 305.18 85.77"/><path class="cls-22" d="m274.31,42.92l2.14-.22.13-.61-5.09-12.75-1.84.26-3.1-2.49-3.47,4.48s-11.85-2.54-11.58-2.39-4.07,1.83-4.07,1.83l-4.84-1.08h-10.64l-1.65-1.85-3.73,1.5v.72l-4.47.3-4.68,1.09-6.38-.2-1.23-3.34-4.06,1.17-.09,1.02-6.54-1.37-8.56.34-.26,2.74-8.03-1.85-7.09-.89-6.36,1.13-2.05-2.28s-3.09.44-4.12.8-6.11-1.01-6.11-1.01l-2.21,1.97-.81,2.76-10.1-3.09-3.41,1.68-5.69.58-8.03-.31-4.18-.26-5.42-1.95-4.33,1.5-.94,2.49.89,4.41.04,2.16-1.99,2.78,36.31-2.6,34.51,2.82,21.73,1.38,24.58-.61h37.37l6.01.89,3.43-1.65Z"/><path class="cls-22" d="m274.92,38.18l2.12.28.13.77-5.05,16.07-1.82-.33-3.07,3.14-3.44-5.64s-11.74,3.2-11.48,3.01-4.04-2.3-4.04-2.3l-4.79,1.36h-10.55l-1.63,2.33-3.7-1.9v-.91l-4.43-.38-4.64-1.37-6.33.25-1.22,4.21-4.02-1.47-.09-1.29-6.48,1.72-8.49-.43-.26-3.46-7.96,2.33-7.03,1.13-6.3-1.43-2.04,2.87s-3.06-.56-4.09-1.01-6.06,1.28-6.06,1.28l-2.2-2.48-.8-3.48-10.01,3.9-3.38-2.11-5.64-.73-7.96.4-4.14.33-5.37,2.46-4.3-1.89-.93-3.14.89-5.56.04-2.72-1.98-3.5,35.99,1,32.77,1.26,22.35,1.16,27.17-1.26h24.38l10.42.1,6.08-4.63,3.4,2.08Z"/></g></svg>