<?xml version="1.0" encoding="UTF-8"?><svg id="Layer_2" xmlns="http://www.w3.org/2000/svg" viewBox="0 0 793.79 298.58"><defs><style>.cls-1,.cls-2,.cls-3,.cls-4,.cls-5,.cls-6,.cls-7,.cls-8,.cls-9,.cls-10,.cls-11,.cls-12,.cls-13,.cls-14,.cls-15{stroke-miterlimit:10;}.cls-1,.cls-3,.cls-4,.cls-6,.cls-7,.cls-8,.cls-9,.cls-10,.cls-11,.cls-13,.cls-14,.cls-15{stroke:#000;}.cls-1,.cls-12{fill:#2d3538;}.cls-2{fill:#1e2223;stroke:#1e2223;}.cls-3{fill:none;}.cls-4{fill:#2f454c;}.cls-5{stroke:#5e7781;}.cls-5,.cls-8{fill:#5e7781;}.cls-7{fill:#a0b0b5;}.cls-9{fill:#c4ccce;}.cls-10{fill:#505b5e;}.cls-11{fill:#75888e;}.cls-12{stroke:#2d3538;}.cls-13{fill:#fff;}.cls-14{fill:#242e30;}.cls-15{fill:#335059;}</style></defs><g id="_מאג"><polyline class="cls-8" points="185.94 114.29 166.67 185.48 141.97 293.55"/><path class="cls-8" d="m390.05,48.72l47.57,12.9c4.36,1.18,8.26,3.76,11.17,7.39l2.16,2.69"/><path class="cls-8" d="m525.37,98.53l-122.17-24.49h0c1.11-6.19,6.77-10.25,12.64-9.08l100.93,20.24c5.86,1.18,9.72,7.15,8.6,13.34h0Z"/><path class="cls-8" d="m329.28,94.58l28.91,1.91,21.08,3.81,10.77-1.66-5.05-26.95-.13-1.62-1.46-17.8c-.58-7.12,5.39-13.05,12.51-12.41h0c4.99.45,9.88,1.61,14.54,3.45l25.86,10.21c8.94,4.46,18.66,12.13,16.08,15.48l5.55,4.39,124.3,26.91,7.21,4.93,3.02-8.74,36.14,5.09,3.97,3.66-3.54-15.34,8,4.05,5.43,11.28,6.01,15.41"/><path class="cls-8" d="m589.76,111.61h42.87c.48,0,.96.12,1.39.35l14.04,7.56,18.93,10.2c.11.06.23.13.33.21l18.52,13.44c.39.28.85.47,1.33.53l37.02,4.96c.13.02.26.03.39.03h17.31c.14,0,.28,0,.41-.03l29.99-4.29c.57-.08,1.11-.33,1.54-.72l10.06-9.03c.81-.73,1.96-.94,2.98-.56l4.51,1.7c1.31.49,2.09,1.85,1.85,3.23l-3.67,21.6c-.09.53-.33,1.03-.68,1.43l-12.95,14.85c-.24.28-.43.6-.55.94l-6.99,19.68c-.03.09-.06.19-.09.29l-4.84,19.87c-.32,1.31-1.49,2.23-2.84,2.23h-14.58c-.33,0-.65-.05-.96-.16-3.73-1.31-28.63-10.01-29.74-10.01-1.05,0-20.23-6.7-25.29-8.47-.78-.27-1.39-.85-1.71-1.61-1.66-3.89-6.92-16.09-7.93-16.62-1.1-.58-19.27-9.11-22.42-10.59-.31-.14-.64-.23-.98-.26l-27.24-2.45c-.36-.03-.73,0-1.08.11l-19.78,5.8c-.86.25-1.56.89-1.89,1.72l-3.97,9.94c-.21.53-.26,1.1-.15,1.66.86,4.23,4.65,22.96,4.65,25.21,0,2.54-1.81,15.26-2.41,14.62s-15.37.02-15.37.02h-7.8c-1.36,0-2.55-.94-2.85-2.27l-.74-3.22c-.22-.95.05-1.96.73-2.67l6.02-6.36c.81-.85,1.03-2.1.56-3.18l-5.8-13.36c-.04-.09-.08-.17-.12-.25l-3.19-5.78c-.58-1.04-1.73-1.63-2.91-1.49l-13.16,1.6c-.36.04-.72.02-1.07-.07l-8.04-2.04c-4.13-1.05-7.62-3.79-9.6-7.56l-1.98-3.77c-.6-1.14-.84-2.44-.69-3.72l1.56-13.15c.01-.09.03-.19.05-.28l1.29-5.88c.32-1.46.14-2.98-.49-4.32h0c-.5-1.05-1.58-1.71-2.74-1.67l-14.3.49c-1.63.06-3.26-.08-4.86-.4l-13.1-2.66c-.1-.02-.21-.04-.31-.05l-20.18-1.88c-.1,0-.19-.02-.29-.04l-34.49-6.7-36.8-8.47c-.16-.04-.33-.06-.49-.07l-17.02-.95c-1.31-.07-2.52.74-2.94,1.99l-1.49,4.44c-.36,1.06-1.29,1.83-2.41,1.97l-6.26.79c-.23.03-.47.03-.71,0l-3.37-.4c-1.05-.12-1.95-.8-2.35-1.77l-1.52-3.61c-.15-.36-.23-.75-.23-1.14v-1.59c0-1.57-1.24-2.86-2.81-2.92l-15.76-.62c-.06,0-.13,0-.19-.01l-23.45-2.47c-.36-.04-.71-.14-1.04-.31l-4.9-2.53c-.84-.43-1.42-1.25-1.55-2.18l-.29-2.03"/><path class="cls-8" d="m385,71.7h-20.61s-2.58,19.07-2.58,22.25,27.71,1.91,27.71,1.91l.6,2.54,6.02-.64-4.22-26.06,129.88,26.11,9.25,5.03,36.96,5.4,24.04,4.36"/><polyline class="cls-7" points="211.84 50.08 166.89 40.55 166.17 43.78 162.45 60.41 206.42 71.7 207.02 64.7"/><polygon class="cls-8" points="92.58 32.28 166.17 43.78 162.45 60.41 87.7 46.35 56.45 43.73 49.22 43.09 49.22 38.64 .5 32.28 .5 18.12 70.3 27.83 78.13 3.04 88.37 .5 91.94 .5 92.58 32.28"/><polygon class="cls-5" points="447.34 98.5 447.34 104.56 443.89 120.5 546.24 120.5 560.29 109.41 447.34 98.5"/><path class="cls-8" d="m154.62,71.7v14.08l31.5,3.48,139.55,28.21,3.61-22.88-106-14.62-15.06-1.91c-3.61-.64-16.62-3.74-16.86-3.81l-10.8-2.22-20.52-3.5-5.42,3.18Z"/><polygon class="cls-8" points="206.42 116.83 186.12 114.63 186.12 93.95 186.12 89.26 206.42 93.95 206.42 116.83"/><polygon class="cls-10" points="171.13 96.19 186.12 93.95 186.12 114.63 173.96 116.83 171.13 123.59 167.83 123.59 171.13 96.19"/><path class="cls-9" d="m502.74,105.39l.69,20.98h-7.92l-32.62-5.72-19.78-3.18s.05-.63.14-1.68c.19-2.3.55-6.65.89-10.95.42-5.29.81-10.53.84-11.84l1.89-9.7,54.06,13.04"/><polyline class="cls-11" points="497.92 105.39 474.69 99.71 450.95 93.95 450.95 108.77 474.69 112.61 495.42 116.83 497.92 105.39"/><polyline class="cls-9" points="450.95 83.6 501.54 96.49 502.74 105.39"/><polyline class="cls-8" points="442.89 117 325.67 117.47 329.28 94.58 444.39 102"/><polyline class="cls-8" points="186.12 114.63 201.3 116.83 167.27 298 141.97 293.55"/><polyline class="cls-15" points="363.53 78.25 361.81 93.95 358.74 93.45 302.17 84.23 257.39 76.93 207.02 64.7 211.84 50.08 363.7 76.93 356.8 85.67 355.78 86.95 223.28 64.07 229.61 53.23"/><path class="cls-13" d="m549.01,160.58l-2.6,8.08c-.22.68-.24,1.42-.05,2.11l2.28,8.47c.44,1.63,1.92,2.76,3.6,2.76h15.84c1.98,0,3.61-1.54,3.72-3.52l.52-9.02c.04-.7-.12-1.39-.45-2l-4.76-8.72c-.47-.86-1.26-1.5-2.2-1.79l-6.78-2.03c-.61-.18-1.25-.2-1.85-.07-.49.11-.97.31-1.39.61l-4.51,3.22c-.65.47-1.14,1.13-1.38,1.89Z"/><polyline class="cls-2" points="450.95 94.58 450.95 108.77 495.42 116.83 497.92 105.39 450.95 93.95"/><line class="cls-3" x1="607.39" y1="178" x2="622.39" y2="126"/><polygon class="cls-4" points="590.76 112.37 621.39 126 607.86 176.39 628.69 170.02 654.18 172.1 680.42 183.21 688.35 199.83 745.09 219.92 762.69 219.22 775.39 178.02 789.57 160.79 792.96 137.37 784.89 134.23 773.83 143.84 742.31 148.86 723.11 148.72 687.17 143.9 667.33 129.93 634.02 111.96 590.76 112.37"/><path class="cls-1" d="m392.39,54l16,5,24,3,15.48,10.23c3.97.46,6.66-3.94,4.44-7.27l-.14-.21-8.28-7.26-16.3-7.41-13.6-5.37-16.71-4.89h-5.22l-4.88,2.95-3.99,7.31v7.92c0,3.84,5.38-4.45,9.2-4.01Z"/><path class="cls-13" d="m452.93,68.83l-1.59,2.87-1.96,1.3h0c-1.28,1.28-3.02,2-4.83,2h-9.3c-1.91,0-3.82-.11-5.72-.33l-22.13-2.59c-1.09-.13-2.18-.29-3.1-.58-2.77-.87-5.6-1.52-8.49-1.69l-4-.23c-8.11.9-4.18-3.17-7.51-6.18h0"/><path class="cls-12" d="m452.39,68c0,2.49.31,4-3,4s-8-3.51-8-6-1.31-6,2-6,9,5.51,9,8Z"/><polyline class="cls-13" points="385.35 64.75 384.22 62.28 384.22 58.88 390.27 54.47 391.93 53.99 397.08 55.47 404.82 57.88 408.39 59 418.63 60.28 432.39 62 440.16 67.13 446.02 71 447.87 72.23 451.39 72"/><line class="cls-13" x1="450.95" y1="72.26" x2="453.11" y2="69.57"/><path class="cls-6" d="m554.48,166.16l5.7,10.45c.14.26.36.47.62.6h0c1.18.59,2.45-.58,1.98-1.81-.23-.6-.38-1.11-.38-1.4,0-.83-.66-5.82-.89-7.47-.05-.34.03-.69.22-.98l1.63-2.5s.04-.07.06-.11l1.68-3.14c.4-.76,1.09-2.49.29-2.81l-5.78-1.1c-.21-.08-.99-.92-1.22-.9h-2c-.24.02-1.8.86-2,1l-1.17,1.69c-.5.34-.73.96-.58,1.54l1.7,6.6c.03.11.07.22.13.33Z"/><polyline class="cls-14" points="582.39 111 581.6 112.61 568.39 147 565.76 153.67 608.44 174.22 621.39 126 590.76 112.37 582.08 110.8"/><rect class="cls-6" x="603.39" y="131" width="9" height="35" transform="translate(64.97 -162.67) rotate(16.09)"/><rect class="cls-6" x="585.11" y="121.36" width="9" height="35" transform="translate(61.58 -157.98) rotate(16.09)"/></g></svg>